<?xml version="1.0" encoding="UTF-8" standalone="no"?>
<!DOCTYPE svg PUBLIC "-//W3C//DTD SVG 1.1//EN"
 "http://www.w3.org/Graphics/SVG/1.1/DTD/svg11.dtd">
<!-- Generated by graphviz version 12.1.2 (20240928.0832)
 -->
<!-- Title: G Pages: 1 -->
<svg width="2481pt" height="1110pt"
 viewBox="0.00 0.00 2481.20 1110.39" xmlns="http://www.w3.org/2000/svg" xmlns:xlink="http://www.w3.org/1999/xlink">
<g id="graph0" class="graph" transform="scale(1 1) rotate(0) translate(21.6 1088.79)">
<title>G</title>
<polygon fill="#111111" stroke="none" points="-21.6,21.6 -21.6,-1088.79 2459.6,-1088.79 2459.6,21.6 -21.6,21.6"/>
<!-- App.tsx -->
<g id="node1" class="node">
<title>App.tsx</title>
<path fill="none" stroke="#c6c5fe" d="M53.08,-628.75C53.08,-628.75 7.92,-628.75 7.92,-628.75 3.96,-628.75 0,-624.79 0,-620.83 0,-620.83 0,-612.92 0,-612.92 0,-608.96 3.96,-605 7.92,-605 7.92,-605 53.08,-605 53.08,-605 57.04,-605 61,-608.96 61,-612.92 61,-612.92 61,-620.83 61,-620.83 61,-624.79 57.04,-628.75 53.08,-628.75"/>
<text text-anchor="middle" x="30.5" y="-611.45" font-family="Arial" font-size="14.00" fill="#c6c5fe">App.tsx</text>
</g>
<!-- components/ProtectedRoute.tsx -->
<g id="node2" class="node">
<title>components/ProtectedRoute.tsx</title>
<path fill="none" stroke="#cfffac" d="M370.96,-1023.75C370.96,-1023.75 178.04,-1023.75 178.04,-1023.75 174.08,-1023.75 170.12,-1019.79 170.12,-1015.83 170.12,-1015.83 170.12,-1007.92 170.12,-1007.92 170.12,-1003.96 174.08,-1000 178.04,-1000 178.04,-1000 370.96,-1000 370.96,-1000 374.92,-1000 378.88,-1003.96 378.88,-1007.92 378.88,-1007.92 378.88,-1015.83 378.88,-1015.83 378.88,-1019.79 374.92,-1023.75 370.96,-1023.75"/>
<text text-anchor="middle" x="274.5" y="-1006.45" font-family="Arial" font-size="14.00" fill="#cfffac">components/ProtectedRoute.tsx</text>
</g>
<!-- App.tsx&#45;&gt;components/ProtectedRoute.tsx -->
<g id="edge1" class="edge">
<title>App.tsx&#45;&gt;components/ProtectedRoute.tsx</title>
<path fill="none" stroke="#757575" d="M31.76,-628.97C33.27,-687.39 42.9,-939.67 97,-990.88 113.76,-1006.73 135.78,-1015.12 158.56,-1019.05"/>
<polygon fill="#757575" stroke="#757575" points="157.9,-1022.49 168.29,-1020.42 158.88,-1015.56 157.9,-1022.49"/>
</g>
<!-- components/layouts/index.ts -->
<g id="node3" class="node">
<title>components/layouts/index.ts</title>
<path fill="none" stroke="#c6c5fe" d="M360.08,-981.75C360.08,-981.75 188.92,-981.75 188.92,-981.75 184.96,-981.75 181,-977.79 181,-973.83 181,-973.83 181,-965.92 181,-965.92 181,-961.96 184.96,-958 188.92,-958 188.92,-958 360.08,-958 360.08,-958 364.04,-958 368,-961.96 368,-965.92 368,-965.92 368,-973.83 368,-973.83 368,-977.79 364.04,-981.75 360.08,-981.75"/>
<text text-anchor="middle" x="274.5" y="-964.45" font-family="Arial" font-size="14.00" fill="#c6c5fe">components/layouts/index.ts</text>
</g>
<!-- App.tsx&#45;&gt;components/layouts/index.ts -->
<g id="edge2" class="edge">
<title>App.tsx&#45;&gt;components/layouts/index.ts</title>
<path fill="none" stroke="#757575" d="M32.13,-629.19C35.16,-683.32 50.09,-899.32 97,-943.88 116.45,-962.35 142.95,-971.3 169.5,-975.06"/>
<polygon fill="#757575" stroke="#757575" points="169.02,-978.53 179.35,-976.19 169.82,-971.57 169.02,-978.53"/>
</g>
<!-- components/spot&#45;light/SpotLight.tsx -->
<g id="node4" class="node">
<title>components/spot&#45;light/SpotLight.tsx</title>
<path fill="none" stroke="#c6c5fe" d="M1729.83,-900.75C1729.83,-900.75 1515.17,-900.75 1515.17,-900.75 1511.21,-900.75 1507.25,-896.79 1507.25,-892.83 1507.25,-892.83 1507.25,-884.92 1507.25,-884.92 1507.25,-880.96 1511.21,-877 1515.17,-877 1515.17,-877 1729.83,-877 1729.83,-877 1733.79,-877 1737.75,-880.96 1737.75,-884.92 1737.75,-884.92 1737.75,-892.83 1737.75,-892.83 1737.75,-896.79 1733.79,-900.75 1729.83,-900.75"/>
<text text-anchor="middle" x="1622.5" y="-883.45" font-family="Arial" font-size="14.00" fill="#c6c5fe">components/spot&#45;light/SpotLight.tsx</text>
</g>
<!-- App.tsx&#45;&gt;components/spot&#45;light/SpotLight.tsx -->
<g id="edge3" class="edge">
<title>App.tsx&#45;&gt;components/spot&#45;light/SpotLight.tsx</title>
<path fill="none" stroke="#757575" d="M32.29,-629.09C35.87,-679.94 52.32,-873.83 97,-910.88 146.47,-951.89 610.74,-929.88 675,-929.88 675,-929.88 675,-929.88 1003.5,-929.88 1174.29,-929.88 1371.04,-914.09 1495.8,-902.11"/>
<polygon fill="#757575" stroke="#757575" points="1495.77,-905.63 1505.39,-901.18 1495.1,-898.66 1495.77,-905.63"/>
</g>
<!-- contexts/GlobalContext.tsx -->
<g id="node5" class="node">
<title>contexts/GlobalContext.tsx</title>
<path fill="none" stroke="#cfffac" d="M355.21,-901.75C355.21,-901.75 193.79,-901.75 193.79,-901.75 189.83,-901.75 185.88,-897.79 185.88,-893.83 185.88,-893.83 185.88,-885.92 185.88,-885.92 185.88,-881.96 189.83,-878 193.79,-878 193.79,-878 355.21,-878 355.21,-878 359.17,-878 363.12,-881.96 363.12,-885.92 363.12,-885.92 363.12,-893.83 363.12,-893.83 363.12,-897.79 359.17,-901.75 355.21,-901.75"/>
<text text-anchor="middle" x="274.5" y="-884.45" font-family="Arial" font-size="14.00" fill="#cfffac">contexts/GlobalContext.tsx</text>
</g>
<!-- App.tsx&#45;&gt;contexts/GlobalContext.tsx -->
<g id="edge4" class="edge">
<title>App.tsx&#45;&gt;contexts/GlobalContext.tsx</title>
<path fill="none" stroke="#757575" d="M32.87,-629.11C38.28,-675.05 59.7,-836.33 97,-868.88 118.05,-887.24 146.28,-895.24 173.99,-897.92"/>
<polygon fill="#757575" stroke="#757575" points="173.65,-901.4 183.88,-898.62 174.15,-894.42 173.65,-901.4"/>
</g>
<!-- contexts/ObjectTypesContext.tsx -->
<g id="node6" class="node">
<title>contexts/ObjectTypesContext.tsx</title>
<path fill="none" stroke="#cfffac" d="M373.21,-859.75C373.21,-859.75 175.79,-859.75 175.79,-859.75 171.83,-859.75 167.88,-855.79 167.88,-851.83 167.88,-851.83 167.88,-843.92 167.88,-843.92 167.88,-839.96 171.83,-836 175.79,-836 175.79,-836 373.21,-836 373.21,-836 377.17,-836 381.12,-839.96 381.12,-843.92 381.12,-843.92 381.12,-851.83 381.12,-851.83 381.12,-855.79 377.17,-859.75 373.21,-859.75"/>
<text text-anchor="middle" x="274.5" y="-842.45" font-family="Arial" font-size="14.00" fill="#cfffac">contexts/ObjectTypesContext.tsx</text>
</g>
<!-- App.tsx&#45;&gt;contexts/ObjectTypesContext.tsx -->
<g id="edge5" class="edge">
<title>App.tsx&#45;&gt;contexts/ObjectTypesContext.tsx</title>
<path fill="none" stroke="#757575" d="M31.12,-629.03C30.7,-665.59 34.88,-775.25 97,-826.88 113.77,-840.82 134.74,-848.66 156.3,-852.71"/>
<polygon fill="#757575" stroke="#757575" points="155.7,-856.16 166.12,-854.26 156.79,-849.24 155.7,-856.16"/>
</g>
<!-- contexts/SpotLightContext.tsx -->
<g id="node7" class="node">
<title>contexts/SpotLightContext.tsx</title>
<path fill="none" stroke="#cfffac" d="M363.83,-817.75C363.83,-817.75 185.17,-817.75 185.17,-817.75 181.21,-817.75 177.25,-813.79 177.25,-809.83 177.25,-809.83 177.25,-801.92 177.25,-801.92 177.25,-797.96 181.21,-794 185.17,-794 185.17,-794 363.83,-794 363.83,-794 367.79,-794 371.75,-797.96 371.75,-801.92 371.75,-801.92 371.75,-809.83 371.75,-809.83 371.75,-813.79 367.79,-817.75 363.83,-817.75"/>
<text text-anchor="middle" x="274.5" y="-800.45" font-family="Arial" font-size="14.00" fill="#cfffac">contexts/SpotLightContext.tsx</text>
</g>
<!-- App.tsx&#45;&gt;contexts/SpotLightContext.tsx -->
<g id="edge6" class="edge">
<title>App.tsx&#45;&gt;contexts/SpotLightContext.tsx</title>
<path fill="none" stroke="#757575" d="M32.18,-629.08C34.67,-660.67 46,-745.4 97,-784.88 116.57,-800.03 141.21,-807.75 165.81,-811.2"/>
<polygon fill="#757575" stroke="#757575" points="165.26,-814.66 175.6,-812.33 166.06,-807.71 165.26,-814.66"/>
</g>
<!-- pages/LandingPage.tsx -->
<g id="node8" class="node">
<title>pages/LandingPage.tsx</title>
<path fill="none" stroke="#cfffac" d="M345.08,-775.75C345.08,-775.75 203.92,-775.75 203.92,-775.75 199.96,-775.75 196,-771.79 196,-767.83 196,-767.83 196,-759.92 196,-759.92 196,-755.96 199.96,-752 203.92,-752 203.92,-752 345.08,-752 345.08,-752 349.04,-752 353,-755.96 353,-759.92 353,-759.92 353,-767.83 353,-767.83 353,-771.79 349.04,-775.75 345.08,-775.75"/>
<text text-anchor="middle" x="274.5" y="-758.45" font-family="Arial" font-size="14.00" fill="#cfffac">pages/LandingPage.tsx</text>
</g>
<!-- App.tsx&#45;&gt;pages/LandingPage.tsx -->
<g id="edge7" class="edge">
<title>App.tsx&#45;&gt;pages/LandingPage.tsx</title>
<path fill="none" stroke="#757575" d="M33.88,-629.07C39.62,-654.92 56.85,-715.11 97,-742.88 122.21,-760.3 154.42,-767.37 184.41,-769.49"/>
<polygon fill="#757575" stroke="#757575" points="184.1,-772.98 194.26,-770 184.45,-765.99 184.1,-772.98"/>
</g>
<!-- pages/NoPermissionPage.tsx -->
<g id="node9" class="node">
<title>pages/NoPermissionPage.tsx</title>
<path fill="none" stroke="#cfffac" d="M363.46,-733.75C363.46,-733.75 185.54,-733.75 185.54,-733.75 181.58,-733.75 177.62,-729.79 177.62,-725.83 177.62,-725.83 177.62,-717.92 177.62,-717.92 177.62,-713.96 181.58,-710 185.54,-710 185.54,-710 363.46,-710 363.46,-710 367.42,-710 371.38,-713.96 371.38,-717.92 371.38,-717.92 371.38,-725.83 371.38,-725.83 371.38,-729.79 367.42,-733.75 363.46,-733.75"/>
<text text-anchor="middle" x="274.5" y="-716.45" font-family="Arial" font-size="14.00" fill="#cfffac">pages/NoPermissionPage.tsx</text>
</g>
<!-- App.tsx&#45;&gt;pages/NoPermissionPage.tsx -->
<g id="edge8" class="edge">
<title>App.tsx&#45;&gt;pages/NoPermissionPage.tsx</title>
<path fill="none" stroke="#757575" d="M37.1,-629.1C46.49,-648.08 67.36,-684.16 97,-700.88 117.77,-712.59 142.08,-719.14 165.9,-722.59"/>
<polygon fill="#757575" stroke="#757575" points="165.3,-726.04 175.66,-723.81 166.17,-719.09 165.3,-726.04"/>
</g>
<!-- pages/auth/index.ts -->
<g id="node10" class="node">
<title>pages/auth/index.ts</title>
<path fill="none" stroke="#c6c5fe" d="M333.08,-691.75C333.08,-691.75 215.92,-691.75 215.92,-691.75 211.96,-691.75 208,-687.79 208,-683.83 208,-683.83 208,-675.92 208,-675.92 208,-671.96 211.96,-668 215.92,-668 215.92,-668 333.08,-668 333.08,-668 337.04,-668 341,-671.96 341,-675.92 341,-675.92 341,-683.83 341,-683.83 341,-687.79 337.04,-691.75 333.08,-691.75"/>
<text text-anchor="middle" x="274.5" y="-674.45" font-family="Arial" font-size="14.00" fill="#c6c5fe">pages/auth/index.ts</text>
</g>
<!-- App.tsx&#45;&gt;pages/auth/index.ts -->
<g id="edge9" class="edge">
<title>App.tsx&#45;&gt;pages/auth/index.ts</title>
<path fill="none" stroke="#757575" d="M46.33,-629.19C58.97,-638.97 78.05,-652.08 97,-658.88 128.43,-670.15 164.83,-675.64 196.37,-678.23"/>
<polygon fill="#757575" stroke="#757575" points="196.02,-681.71 206.25,-678.95 196.53,-674.73 196.02,-681.71"/>
</g>
<!-- pages/feed/index.ts -->
<g id="node11" class="node">
<title>pages/feed/index.ts</title>
<path fill="none" stroke="#c6c5fe" d="M333.08,-649.75C333.08,-649.75 215.92,-649.75 215.92,-649.75 211.96,-649.75 208,-645.79 208,-641.83 208,-641.83 208,-633.92 208,-633.92 208,-629.96 211.96,-626 215.92,-626 215.92,-626 333.08,-626 333.08,-626 337.04,-626 341,-629.96 341,-633.92 341,-633.92 341,-641.83 341,-641.83 341,-645.79 337.04,-649.75 333.08,-649.75"/>
<text text-anchor="middle" x="274.5" y="-632.45" font-family="Arial" font-size="14.00" fill="#c6c5fe">pages/feed/index.ts</text>
</g>
<!-- App.tsx&#45;&gt;pages/feed/index.ts -->
<g id="edge10" class="edge">
<title>App.tsx&#45;&gt;pages/feed/index.ts</title>
<path fill="none" stroke="#757575" d="M61.17,-619.45C94.57,-622.35 150.15,-627.17 196.07,-631.16"/>
<polygon fill="#757575" stroke="#757575" points="195.74,-634.64 206,-632.02 196.34,-627.67 195.74,-634.64"/>
</g>
<!-- pages/merge/MergeObjectsPage.tsx -->
<g id="node12" class="node">
<title>pages/merge/MergeObjectsPage.tsx</title>
<path fill="none" stroke="#c6c5fe" d="M385.21,-607.75C385.21,-607.75 163.79,-607.75 163.79,-607.75 159.83,-607.75 155.88,-603.79 155.88,-599.83 155.88,-599.83 155.88,-591.92 155.88,-591.92 155.88,-587.96 159.83,-584 163.79,-584 163.79,-584 385.21,-584 385.21,-584 389.17,-584 393.12,-587.96 393.12,-591.92 393.12,-591.92 393.12,-599.83 393.12,-599.83 393.12,-603.79 389.17,-607.75 385.21,-607.75"/>
<text text-anchor="middle" x="274.5" y="-590.45" font-family="Arial" font-size="14.00" fill="#c6c5fe">pages/merge/MergeObjectsPage.tsx</text>
</g>
<!-- App.tsx&#45;&gt;pages/merge/MergeObjectsPage.tsx -->
<g id="edge11" class="edge">
<title>App.tsx&#45;&gt;pages/merge/MergeObjectsPage.tsx</title>
<path fill="none" stroke="#757575" d="M61.17,-614.3C82.63,-612.44 113.23,-609.78 144.55,-607.06"/>
<polygon fill="#757575" stroke="#757575" points="144.48,-610.58 154.14,-606.23 143.87,-603.61 144.48,-610.58"/>
</g>
<!-- pages/object/index.ts -->
<g id="node13" class="node">
<title>pages/object/index.ts</title>
<path fill="none" stroke="#c6c5fe" d="M337.96,-565.75C337.96,-565.75 211.04,-565.75 211.04,-565.75 207.08,-565.75 203.12,-561.79 203.12,-557.83 203.12,-557.83 203.12,-549.92 203.12,-549.92 203.12,-545.96 207.08,-542 211.04,-542 211.04,-542 337.96,-542 337.96,-542 341.92,-542 345.88,-545.96 345.88,-549.92 345.88,-549.92 345.88,-557.83 345.88,-557.83 345.88,-561.79 341.92,-565.75 337.96,-565.75"/>
<text text-anchor="middle" x="274.5" y="-548.45" font-family="Arial" font-size="14.00" fill="#c6c5fe">pages/object/index.ts</text>
</g>
<!-- App.tsx&#45;&gt;pages/object/index.ts -->
<g id="edge12" class="edge">
<title>App.tsx&#45;&gt;pages/object/index.ts</title>
<path fill="none" stroke="#757575" d="M46.33,-604.56C58.97,-594.78 78.05,-581.67 97,-574.88 126.75,-564.21 160.94,-558.71 191.27,-555.96"/>
<polygon fill="#757575" stroke="#757575" points="191.49,-559.46 201.17,-555.16 190.92,-552.48 191.49,-559.46"/>
</g>
<!-- pages/settings/FunnelBoard.tsx -->
<g id="node14" class="node">
<title>pages/settings/FunnelBoard.tsx</title>
<path fill="none" stroke="#cfffac" d="M369.08,-523.75C369.08,-523.75 179.92,-523.75 179.92,-523.75 175.96,-523.75 172,-519.79 172,-515.83 172,-515.83 172,-507.92 172,-507.92 172,-503.96 175.96,-500 179.92,-500 179.92,-500 369.08,-500 369.08,-500 373.04,-500 377,-503.96 377,-507.92 377,-507.92 377,-515.83 377,-515.83 377,-519.79 373.04,-523.75 369.08,-523.75"/>
<text text-anchor="middle" x="274.5" y="-506.45" font-family="Arial" font-size="14.00" fill="#cfffac">pages/settings/FunnelBoard.tsx</text>
</g>
<!-- App.tsx&#45;&gt;pages/settings/FunnelBoard.tsx -->
<g id="edge13" class="edge">
<title>App.tsx&#45;&gt;pages/settings/FunnelBoard.tsx</title>
<path fill="none" stroke="#757575" d="M37.1,-604.65C46.49,-585.67 67.36,-549.59 97,-532.88 116.2,-522.05 138.43,-515.63 160.5,-512"/>
<polygon fill="#757575" stroke="#757575" points="160.76,-515.5 170.16,-510.61 159.76,-508.57 160.76,-515.5"/>
</g>
<!-- pages/settings/ListObjectByTypesPage.tsx -->
<g id="node15" class="node">
<title>pages/settings/ListObjectByTypesPage.tsx</title>
<path fill="none" stroke="#cfffac" d="M402.46,-481.75C402.46,-481.75 146.54,-481.75 146.54,-481.75 142.58,-481.75 138.62,-477.79 138.62,-473.83 138.62,-473.83 138.62,-465.92 138.62,-465.92 138.62,-461.96 142.58,-458 146.54,-458 146.54,-458 402.46,-458 402.46,-458 406.42,-458 410.38,-461.96 410.38,-465.92 410.38,-465.92 410.38,-473.83 410.38,-473.83 410.38,-477.79 406.42,-481.75 402.46,-481.75"/>
<text text-anchor="middle" x="274.5" y="-464.45" font-family="Arial" font-size="14.00" fill="#cfffac">pages/settings/ListObjectByTypesPage.tsx</text>
</g>
<!-- App.tsx&#45;&gt;pages/settings/ListObjectByTypesPage.tsx -->
<g id="edge14" class="edge">
<title>App.tsx&#45;&gt;pages/settings/ListObjectByTypesPage.tsx</title>
<path fill="none" stroke="#757575" d="M33.88,-604.68C39.62,-578.83 56.85,-518.64 97,-490.88 106.33,-484.43 116.62,-479.4 127.39,-475.51"/>
<polygon fill="#757575" stroke="#757575" points="128.43,-478.85 136.88,-472.46 126.29,-472.19 128.43,-478.85"/>
</g>
<!-- pages/settings/funnel&#45;config&#45;page/FunnelConfigPage.tsx -->
<g id="node16" class="node">
<title>pages/settings/funnel&#45;config&#45;page/FunnelConfigPage.tsx</title>
<path fill="none" stroke="#c6c5fe" d="M444.08,-420.75C444.08,-420.75 104.92,-420.75 104.92,-420.75 100.96,-420.75 97,-416.79 97,-412.83 97,-412.83 97,-404.92 97,-404.92 97,-400.96 100.96,-397 104.92,-397 104.92,-397 444.08,-397 444.08,-397 448.04,-397 452,-400.96 452,-404.92 452,-404.92 452,-412.83 452,-412.83 452,-416.79 448.04,-420.75 444.08,-420.75"/>
<text text-anchor="middle" x="274.5" y="-403.45" font-family="Arial" font-size="14.00" fill="#c6c5fe">pages/settings/funnel&#45;config&#45;page/FunnelConfigPage.tsx</text>
</g>
<!-- App.tsx&#45;&gt;pages/settings/funnel&#45;config&#45;page/FunnelConfigPage.tsx -->
<g id="edge15" class="edge">
<title>App.tsx&#45;&gt;pages/settings/funnel&#45;config&#45;page/FunnelConfigPage.tsx</title>
<path fill="none" stroke="#757575" d="M32.47,-604.51C35.62,-573.29 48.37,-490.75 97,-448.88 108.78,-438.73 122.6,-431.01 137.24,-425.16"/>
<polygon fill="#757575" stroke="#757575" points="138.41,-428.46 146.6,-421.74 136,-421.88 138.41,-428.46"/>
</g>
<!-- pages/settings/index.ts -->
<g id="node17" class="node">
<title>pages/settings/index.ts</title>
<path fill="none" stroke="#c6c5fe" d="M343.21,-275.75C343.21,-275.75 205.79,-275.75 205.79,-275.75 201.83,-275.75 197.88,-271.79 197.88,-267.83 197.88,-267.83 197.88,-259.92 197.88,-259.92 197.88,-255.96 201.83,-252 205.79,-252 205.79,-252 343.21,-252 343.21,-252 347.17,-252 351.12,-255.96 351.12,-259.92 351.12,-259.92 351.12,-267.83 351.12,-267.83 351.12,-271.79 347.17,-275.75 343.21,-275.75"/>
<text text-anchor="middle" x="274.5" y="-258.45" font-family="Arial" font-size="14.00" fill="#c6c5fe">pages/settings/index.ts</text>
</g>
<!-- App.tsx&#45;&gt;pages/settings/index.ts -->
<g id="edge16" class="edge">
<title>App.tsx&#45;&gt;pages/settings/index.ts</title>
<path fill="none" stroke="#757575" d="M32.17,-604.72C34.72,-568.44 46.41,-458.96 97,-387.88 132.58,-337.88 194.92,-301.08 235.19,-281.07"/>
<polygon fill="#757575" stroke="#757575" points="236.59,-284.28 244.06,-276.77 233.54,-277.99 236.59,-284.28"/>
</g>
<!-- pages/tasks/index.ts -->
<g id="node18" class="node">
<title>pages/tasks/index.ts</title>
<path fill="none" stroke="#c6c5fe" d="M335.71,-233.75C335.71,-233.75 213.29,-233.75 213.29,-233.75 209.33,-233.75 205.38,-229.79 205.38,-225.83 205.38,-225.83 205.38,-217.92 205.38,-217.92 205.38,-213.96 209.33,-210 213.29,-210 213.29,-210 335.71,-210 335.71,-210 339.67,-210 343.62,-213.96 343.62,-217.92 343.62,-217.92 343.62,-225.83 343.62,-225.83 343.62,-229.79 339.67,-233.75 335.71,-233.75"/>
<text text-anchor="middle" x="274.5" y="-216.45" font-family="Arial" font-size="14.00" fill="#c6c5fe">pages/tasks/index.ts</text>
</g>
<!-- App.tsx&#45;&gt;pages/tasks/index.ts -->
<g id="edge17" class="edge">
<title>App.tsx&#45;&gt;pages/tasks/index.ts</title>
<path fill="none" stroke="#757575" d="M31.76,-604.78C33.27,-546.36 42.9,-294.08 97,-242.88 122.37,-218.86 159.82,-211.98 193.7,-211.77"/>
<polygon fill="#757575" stroke="#757575" points="193.46,-215.27 203.51,-211.92 193.57,-208.27 193.46,-215.27"/>
</g>
<!-- pages/views/index.ts -->
<g id="node19" class="node">
<title>pages/views/index.ts</title>
<path fill="none" stroke="#c6c5fe" d="M336.83,-191.75C336.83,-191.75 212.17,-191.75 212.17,-191.75 208.21,-191.75 204.25,-187.79 204.25,-183.83 204.25,-183.83 204.25,-175.92 204.25,-175.92 204.25,-171.96 208.21,-168 212.17,-168 212.17,-168 336.83,-168 336.83,-168 340.79,-168 344.75,-171.96 344.75,-175.92 344.75,-175.92 344.75,-183.83 344.75,-183.83 344.75,-187.79 340.79,-191.75 336.83,-191.75"/>
<text text-anchor="middle" x="274.5" y="-174.45" font-family="Arial" font-size="14.00" fill="#c6c5fe">pages/views/index.ts</text>
</g>
<!-- App.tsx&#45;&gt;pages/views/index.ts -->
<g id="edge18" class="edge">
<title>App.tsx&#45;&gt;pages/views/index.ts</title>
<path fill="none" stroke="#757575" d="M31.53,-604.7C31.93,-542.25 37.09,-258.56 97,-200.88 121.96,-176.84 158.99,-169.85 192.7,-169.58"/>
<polygon fill="#757575" stroke="#757575" points="192.42,-173.07 202.46,-169.71 192.51,-166.07 192.42,-173.07"/>
</g>
<!-- services/authService.ts -->
<g id="node20" class="node">
<title>services/authService.ts</title>
<path fill="none" stroke="#cfffac" d="M343.96,-149.75C343.96,-149.75 205.04,-149.75 205.04,-149.75 201.08,-149.75 197.12,-145.79 197.12,-141.83 197.12,-141.83 197.12,-133.92 197.12,-133.92 197.12,-129.96 201.08,-126 205.04,-126 205.04,-126 343.96,-126 343.96,-126 347.92,-126 351.88,-129.96 351.88,-133.92 351.88,-133.92 351.88,-141.83 351.88,-141.83 351.88,-145.79 347.92,-149.75 343.96,-149.75"/>
<text text-anchor="middle" x="274.5" y="-132.45" font-family="Arial" font-size="14.00" fill="#cfffac">services/authService.ts</text>
</g>
<!-- App.tsx&#45;&gt;services/authService.ts -->
<g id="edge19" class="edge">
<title>App.tsx&#45;&gt;services/authService.ts</title>
<path fill="none" stroke="#757575" d="M31.34,-604.81C30.71,-538.92 31.2,-223.13 97,-158.88 120.11,-136.31 153.82,-128.68 185.6,-127.56"/>
<polygon fill="#757575" stroke="#757575" points="185.28,-131.06 195.23,-127.43 185.19,-124.06 185.28,-131.06"/>
</g>
<!-- styles/tailwind.css -->
<g id="node21" class="node">
<title>styles/tailwind.css</title>
<path fill="none" stroke="#cfffac" d="M328.21,-107.75C328.21,-107.75 220.79,-107.75 220.79,-107.75 216.83,-107.75 212.88,-103.79 212.88,-99.83 212.88,-99.83 212.88,-91.92 212.88,-91.92 212.88,-87.96 216.83,-84 220.79,-84 220.79,-84 328.21,-84 328.21,-84 332.17,-84 336.12,-87.96 336.12,-91.92 336.12,-91.92 336.12,-99.83 336.12,-99.83 336.12,-103.79 332.17,-107.75 328.21,-107.75"/>
<text text-anchor="middle" x="274.5" y="-90.45" font-family="Arial" font-size="14.00" fill="#cfffac">styles/tailwind.css</text>
</g>
<!-- App.tsx&#45;&gt;styles/tailwind.css -->
<g id="edge20" class="edge">
<title>App.tsx&#45;&gt;styles/tailwind.css</title>
<path fill="none" stroke="#757575" d="M31.17,-604.64C29.58,-534.84 25.39,-187.64 97,-116.88 123.84,-90.35 165.3,-84.38 201.3,-85.37"/>
<polygon fill="#757575" stroke="#757575" points="201.1,-88.86 211.25,-85.85 201.43,-81.87 201.1,-88.86"/>
</g>
<!-- components/layouts/Header.tsx -->
<g id="node40" class="node">
<title>components/layouts/Header.tsx</title>
<path fill="none" stroke="#c6c5fe" d="M1097.08,-1022.75C1097.08,-1022.75 907.92,-1022.75 907.92,-1022.75 903.96,-1022.75 900,-1018.79 900,-1014.83 900,-1014.83 900,-1006.92 900,-1006.92 900,-1002.96 903.96,-999 907.92,-999 907.92,-999 1097.08,-999 1097.08,-999 1101.04,-999 1105,-1002.96 1105,-1006.92 1105,-1006.92 1105,-1014.83 1105,-1014.83 1105,-1018.79 1101.04,-1022.75 1097.08,-1022.75"/>
<text text-anchor="middle" x="1002.5" y="-1005.45" font-family="Arial" font-size="14.00" fill="#c6c5fe">components/layouts/Header.tsx</text>
</g>
<!-- components/layouts/index.ts&#45;&gt;components/layouts/Header.tsx -->
<g id="edge39" class="edge">
<title>components/layouts/index.ts&#45;&gt;components/layouts/Header.tsx</title>
<path fill="none" stroke="#757575" d="M368.25,-968.14C396.47,-970.89 426.68,-977.36 452,-990.88 473.69,-1002.45 465.66,-1022.6 488,-1032.88 639.82,-1102.7 697.41,-1046.12 864,-1032.88 884.34,-1031.26 906.22,-1028.32 926.4,-1025.1"/>
<polygon fill="#757575" stroke="#757575" points="926.95,-1028.55 936.25,-1023.48 925.81,-1021.65 926.95,-1028.55"/>
</g>
<!-- components/layouts/MainContent.tsx -->
<g id="node41" class="node">
<title>components/layouts/MainContent.tsx</title>
<path fill="none" stroke="#cfffac" d="M787.46,-1023.75C787.46,-1023.75 564.54,-1023.75 564.54,-1023.75 560.58,-1023.75 556.62,-1019.79 556.62,-1015.83 556.62,-1015.83 556.62,-1007.92 556.62,-1007.92 556.62,-1003.96 560.58,-1000 564.54,-1000 564.54,-1000 787.46,-1000 787.46,-1000 791.42,-1000 795.38,-1003.96 795.38,-1007.92 795.38,-1007.92 795.38,-1015.83 795.38,-1015.83 795.38,-1019.79 791.42,-1023.75 787.46,-1023.75"/>
<text text-anchor="middle" x="676" y="-1006.45" font-family="Arial" font-size="14.00" fill="#cfffac">components/layouts/MainContent.tsx</text>
</g>
<!-- components/layouts/index.ts&#45;&gt;components/layouts/MainContent.tsx -->
<g id="edge40" class="edge">
<title>components/layouts/index.ts&#45;&gt;components/layouts/MainContent.tsx</title>
<path fill="none" stroke="#757575" d="M368.41,-979.64C421.25,-985.2 488.23,-992.24 546.09,-998.32"/>
<polygon fill="#757575" stroke="#757575" points="545.72,-1001.8 556.03,-999.37 546.45,-994.84 545.72,-1001.8"/>
</g>
<!-- components/layouts/Sidebar.tsx -->
<g id="node42" class="node">
<title>components/layouts/Sidebar.tsx</title>
<path fill="none" stroke="#cfffac" d="M771.71,-981.75C771.71,-981.75 580.29,-981.75 580.29,-981.75 576.33,-981.75 572.38,-977.79 572.38,-973.83 572.38,-973.83 572.38,-965.92 572.38,-965.92 572.38,-961.96 576.33,-958 580.29,-958 580.29,-958 771.71,-958 771.71,-958 775.67,-958 779.62,-961.96 779.62,-965.92 779.62,-965.92 779.62,-973.83 779.62,-973.83 779.62,-977.79 775.67,-981.75 771.71,-981.75"/>
<text text-anchor="middle" x="676" y="-964.45" font-family="Arial" font-size="14.00" fill="#cfffac">components/layouts/Sidebar.tsx</text>
</g>
<!-- components/layouts/index.ts&#45;&gt;components/layouts/Sidebar.tsx -->
<g id="edge41" class="edge">
<title>components/layouts/index.ts&#45;&gt;components/layouts/Sidebar.tsx</title>
<path fill="none" stroke="#757575" d="M368.41,-969.88C425.81,-969.88 499.9,-969.88 560.86,-969.88"/>
<polygon fill="#757575" stroke="#757575" points="560.57,-973.38 570.57,-969.88 560.57,-966.38 560.57,-973.38"/>
</g>
<!-- components/FactItem.tsx -->
<g id="node24" class="node">
<title>components/FactItem.tsx</title>
<path fill="none" stroke="#c6c5fe" d="M2034.58,-983.75C2034.58,-983.75 1882.17,-983.75 1882.17,-983.75 1878.21,-983.75 1874.25,-979.79 1874.25,-975.83 1874.25,-975.83 1874.25,-967.92 1874.25,-967.92 1874.25,-963.96 1878.21,-960 1882.17,-960 1882.17,-960 2034.58,-960 2034.58,-960 2038.54,-960 2042.5,-963.96 2042.5,-967.92 2042.5,-967.92 2042.5,-975.83 2042.5,-975.83 2042.5,-979.79 2038.54,-983.75 2034.58,-983.75"/>
<text text-anchor="middle" x="1958.38" y="-966.45" font-family="Arial" font-size="14.00" fill="#c6c5fe">components/FactItem.tsx</text>
</g>
<!-- components/spot&#45;light/SpotLight.tsx&#45;&gt;components/FactItem.tsx -->
<g id="edge50" class="edge">
<title>components/spot&#45;light/SpotLight.tsx&#45;&gt;components/FactItem.tsx</title>
<path fill="none" stroke="#757575" d="M1651.96,-901.23C1685.73,-915.39 1744.06,-938.26 1796.25,-950.88 1817.5,-956.01 1840.65,-959.96 1862.6,-962.97"/>
<polygon fill="#757575" stroke="#757575" points="1862.08,-966.43 1872.45,-964.27 1862.99,-959.49 1862.08,-966.43"/>
</g>
<!-- components/LoadingPanel.tsx -->
<g id="node26" class="node">
<title>components/LoadingPanel.tsx</title>
<path fill="none" stroke="#cfffac" d="M2049.21,-941.75C2049.21,-941.75 1867.54,-941.75 1867.54,-941.75 1863.58,-941.75 1859.62,-937.79 1859.62,-933.83 1859.62,-933.83 1859.62,-925.92 1859.62,-925.92 1859.62,-921.96 1863.58,-918 1867.54,-918 1867.54,-918 2049.21,-918 2049.21,-918 2053.17,-918 2057.12,-921.96 2057.12,-925.92 2057.12,-925.92 2057.12,-933.83 2057.12,-933.83 2057.12,-937.79 2053.17,-941.75 2049.21,-941.75"/>
<text text-anchor="middle" x="1958.38" y="-924.45" font-family="Arial" font-size="14.00" fill="#cfffac">components/LoadingPanel.tsx</text>
</g>
<!-- components/spot&#45;light/SpotLight.tsx&#45;&gt;components/LoadingPanel.tsx -->
<g id="edge51" class="edge">
<title>components/spot&#45;light/SpotLight.tsx&#45;&gt;components/LoadingPanel.tsx</title>
<path fill="none" stroke="#757575" d="M1724.13,-901.23C1763.18,-906.03 1808.02,-911.53 1847.88,-916.43"/>
<polygon fill="#757575" stroke="#757575" points="1847.4,-919.9 1857.75,-917.64 1848.25,-912.95 1847.4,-919.9"/>
</g>
<!-- components/TaskItem.tsx -->
<g id="node27" class="node">
<title>components/TaskItem.tsx</title>
<path fill="none" stroke="#c6c5fe" d="M2035.33,-899.75C2035.33,-899.75 1881.42,-899.75 1881.42,-899.75 1877.46,-899.75 1873.5,-895.79 1873.5,-891.83 1873.5,-891.83 1873.5,-883.92 1873.5,-883.92 1873.5,-879.96 1877.46,-876 1881.42,-876 1881.42,-876 2035.33,-876 2035.33,-876 2039.29,-876 2043.25,-879.96 2043.25,-883.92 2043.25,-883.92 2043.25,-891.83 2043.25,-891.83 2043.25,-895.79 2039.29,-899.75 2035.33,-899.75"/>
<text text-anchor="middle" x="1958.38" y="-882.45" font-family="Arial" font-size="14.00" fill="#c6c5fe">components/TaskItem.tsx</text>
</g>
<!-- components/spot&#45;light/SpotLight.tsx&#45;&gt;components/TaskItem.tsx -->
<g id="edge52" class="edge">
<title>components/spot&#45;light/SpotLight.tsx&#45;&gt;components/TaskItem.tsx</title>
<path fill="none" stroke="#757575" d="M1737.93,-888.53C1778.31,-888.41 1823.25,-888.28 1861.89,-888.16"/>
<polygon fill="#757575" stroke="#757575" points="1861.63,-891.66 1871.62,-888.13 1861.61,-884.66 1861.63,-891.66"/>
</g>
<!-- components/spot&#45;light/SearchInput.tsx -->
<g id="node47" class="node">
<title>components/spot&#45;light/SearchInput.tsx</title>
<path fill="none" stroke="#cfffac" d="M2073.58,-857.75C2073.58,-857.75 1843.17,-857.75 1843.17,-857.75 1839.21,-857.75 1835.25,-853.79 1835.25,-849.83 1835.25,-849.83 1835.25,-841.92 1835.25,-841.92 1835.25,-837.96 1839.21,-834 1843.17,-834 1843.17,-834 2073.58,-834 2073.58,-834 2077.54,-834 2081.5,-837.96 2081.5,-841.92 2081.5,-841.92 2081.5,-849.83 2081.5,-849.83 2081.5,-853.79 2077.54,-857.75 2073.58,-857.75"/>
<text text-anchor="middle" x="1958.38" y="-840.45" font-family="Arial" font-size="14.00" fill="#cfffac">components/spot&#45;light/SearchInput.tsx</text>
</g>
<!-- components/spot&#45;light/SpotLight.tsx&#45;&gt;components/spot&#45;light/SearchInput.tsx -->
<g id="edge53" class="edge">
<title>components/spot&#45;light/SpotLight.tsx&#45;&gt;components/spot&#45;light/SearchInput.tsx</title>
<path fill="none" stroke="#757575" d="M1719.18,-876.55C1760.04,-871.29 1807.91,-865.12 1849.98,-859.71"/>
<polygon fill="#757575" stroke="#757575" points="1850.42,-863.18 1859.9,-858.43 1849.53,-856.24 1850.42,-863.18"/>
</g>
<!-- pages/auth/AccountPage.tsx -->
<g id="node48" class="node">
<title>pages/auth/AccountPage.tsx</title>
<path fill="none" stroke="#cfffac" d="M761.96,-901.75C761.96,-901.75 590.04,-901.75 590.04,-901.75 586.08,-901.75 582.12,-897.79 582.12,-893.83 582.12,-893.83 582.12,-885.92 582.12,-885.92 582.12,-881.96 586.08,-878 590.04,-878 590.04,-878 761.96,-878 761.96,-878 765.92,-878 769.88,-881.96 769.88,-885.92 769.88,-885.92 769.88,-893.83 769.88,-893.83 769.88,-897.79 765.92,-901.75 761.96,-901.75"/>
<text text-anchor="middle" x="676" y="-884.45" font-family="Arial" font-size="14.00" fill="#cfffac">pages/auth/AccountPage.tsx</text>
</g>
<!-- pages/auth/index.ts&#45;&gt;pages/auth/AccountPage.tsx -->
<g id="edge54" class="edge">
<title>pages/auth/index.ts&#45;&gt;pages/auth/AccountPage.tsx</title>
<path fill="none" stroke="#757575" d="M341.42,-670.44C378.34,-668.98 422.69,-674.16 452,-700.88 508.44,-752.31 431.39,-817.62 488,-868.88 510.23,-889 540.55,-897.39 570.31,-899.88"/>
<polygon fill="#757575" stroke="#757575" points="569.97,-903.37 580.16,-900.47 570.38,-896.38 569.97,-903.37"/>
</g>
<!-- pages/auth/LoginPage.tsx -->
<g id="node49" class="node">
<title>pages/auth/LoginPage.tsx</title>
<path fill="none" stroke="#cfffac" d="M754.08,-859.75C754.08,-859.75 597.92,-859.75 597.92,-859.75 593.96,-859.75 590,-855.79 590,-851.83 590,-851.83 590,-843.92 590,-843.92 590,-839.96 593.96,-836 597.92,-836 597.92,-836 754.08,-836 754.08,-836 758.04,-836 762,-839.96 762,-843.92 762,-843.92 762,-851.83 762,-851.83 762,-855.79 758.04,-859.75 754.08,-859.75"/>
<text text-anchor="middle" x="676" y="-842.45" font-family="Arial" font-size="14.00" fill="#cfffac">pages/auth/LoginPage.tsx</text>
</g>
<!-- pages/auth/index.ts&#45;&gt;pages/auth/LoginPage.tsx -->
<g id="edge55" class="edge">
<title>pages/auth/index.ts&#45;&gt;pages/auth/LoginPage.tsx</title>
<path fill="none" stroke="#757575" d="M341.2,-671.17C377.8,-670.01 421.93,-675.26 452,-700.88 496.34,-738.64 443.54,-789.26 488,-826.88 512.76,-847.83 546.45,-855.68 578.41,-857.45"/>
<polygon fill="#757575" stroke="#757575" points="578,-860.94 588.12,-857.79 578.24,-853.95 578,-860.94"/>
</g>
<!-- pages/auth/OrganisationPage.tsx -->
<g id="node50" class="node">
<title>pages/auth/OrganisationPage.tsx</title>
<path fill="none" stroke="#cfffac" d="M776.21,-817.75C776.21,-817.75 575.79,-817.75 575.79,-817.75 571.83,-817.75 567.88,-813.79 567.88,-809.83 567.88,-809.83 567.88,-801.92 567.88,-801.92 567.88,-797.96 571.83,-794 575.79,-794 575.79,-794 776.21,-794 776.21,-794 780.17,-794 784.12,-797.96 784.12,-801.92 784.12,-801.92 784.12,-809.83 784.12,-809.83 784.12,-813.79 780.17,-817.75 776.21,-817.75"/>
<text text-anchor="middle" x="676" y="-800.45" font-family="Arial" font-size="14.00" fill="#cfffac">pages/auth/OrganisationPage.tsx</text>
</g>
<!-- pages/auth/index.ts&#45;&gt;pages/auth/OrganisationPage.tsx -->
<g id="edge56" class="edge">
<title>pages/auth/index.ts&#45;&gt;pages/auth/OrganisationPage.tsx</title>
<path fill="none" stroke="#757575" d="M341.3,-672.61C377.28,-672.09 420.74,-677.5 452,-700.88 484.53,-725.2 455.39,-760.66 488,-784.88 507.67,-799.49 531.87,-807.34 556.26,-811.14"/>
<polygon fill="#757575" stroke="#757575" points="555.59,-814.58 565.96,-812.41 556.5,-807.64 555.59,-814.58"/>
</g>
<!-- pages/auth/RegisterPage.tsx -->
<g id="node51" class="node">
<title>pages/auth/RegisterPage.tsx</title>
<path fill="none" stroke="#cfffac" d="M762.71,-775.75C762.71,-775.75 589.29,-775.75 589.29,-775.75 585.33,-775.75 581.38,-771.79 581.38,-767.83 581.38,-767.83 581.38,-759.92 581.38,-759.92 581.38,-755.96 585.33,-752 589.29,-752 589.29,-752 762.71,-752 762.71,-752 766.67,-752 770.62,-755.96 770.62,-759.92 770.62,-759.92 770.62,-767.83 770.62,-767.83 770.62,-771.79 766.67,-775.75 762.71,-775.75"/>
<text text-anchor="middle" x="676" y="-758.45" font-family="Arial" font-size="14.00" fill="#cfffac">pages/auth/RegisterPage.tsx</text>
</g>
<!-- pages/auth/index.ts&#45;&gt;pages/auth/RegisterPage.tsx -->
<g id="edge57" class="edge">
<title>pages/auth/index.ts&#45;&gt;pages/auth/RegisterPage.tsx</title>
<path fill="none" stroke="#757575" d="M341.38,-676.51C376.12,-677.41 418.38,-682.93 452,-700.88 473.69,-712.45 466.27,-731.37 488,-742.88 512.74,-755.98 541.87,-762.66 569.68,-765.75"/>
<polygon fill="#757575" stroke="#757575" points="569.29,-769.23 579.58,-766.69 569.95,-762.26 569.29,-769.23"/>
</g>
<!-- pages/feed/FeedPage.tsx -->
<g id="node52" class="node">
<title>pages/feed/FeedPage.tsx</title>
<path fill="none" stroke="#cfffac" d="M752.96,-733.75C752.96,-733.75 599.04,-733.75 599.04,-733.75 595.08,-733.75 591.12,-729.79 591.12,-725.83 591.12,-725.83 591.12,-717.92 591.12,-717.92 591.12,-713.96 595.08,-710 599.04,-710 599.04,-710 752.96,-710 752.96,-710 756.92,-710 760.88,-713.96 760.88,-717.92 760.88,-717.92 760.88,-725.83 760.88,-725.83 760.88,-729.79 756.92,-733.75 752.96,-733.75"/>
<text text-anchor="middle" x="676" y="-716.45" font-family="Arial" font-size="14.00" fill="#cfffac">pages/feed/FeedPage.tsx</text>
</g>
<!-- pages/feed/index.ts&#45;&gt;pages/feed/FeedPage.tsx -->
<g id="edge58" class="edge">
<title>pages/feed/index.ts&#45;&gt;pages/feed/FeedPage.tsx</title>
<path fill="none" stroke="#757575" d="M341.36,-635.38C375.89,-636.56 417.97,-642.07 452,-658.88 472.57,-669.04 467.53,-685.51 488,-695.88 516,-710.05 549.21,-717.26 579.82,-720.73"/>
<polygon fill="#757575" stroke="#757575" points="579.16,-724.18 589.46,-721.69 579.86,-717.21 579.16,-724.18"/>
</g>
<!-- components/Breadcrumb.tsx -->
<g id="node22" class="node">
<title>components/Breadcrumb.tsx</title>
<path fill="none" stroke="#cfffac" d="M1089.21,-693.75C1089.21,-693.75 915.79,-693.75 915.79,-693.75 911.83,-693.75 907.88,-689.79 907.88,-685.83 907.88,-685.83 907.88,-677.92 907.88,-677.92 907.88,-673.96 911.83,-670 915.79,-670 915.79,-670 1089.21,-670 1089.21,-670 1093.17,-670 1097.12,-673.96 1097.12,-677.92 1097.12,-677.92 1097.12,-685.83 1097.12,-685.83 1097.12,-689.79 1093.17,-693.75 1089.21,-693.75"/>
<text text-anchor="middle" x="1002.5" y="-676.45" font-family="Arial" font-size="14.00" fill="#cfffac">components/Breadcrumb.tsx</text>
</g>
<!-- pages/merge/MergeObjectsPage.tsx&#45;&gt;components/Breadcrumb.tsx -->
<g id="edge59" class="edge">
<title>pages/merge/MergeObjectsPage.tsx&#45;&gt;components/Breadcrumb.tsx</title>
<path fill="none" stroke="#757575" d="M393.52,-596.9C413.92,-600.65 434.25,-606.89 452,-616.88 474.62,-629.61 464.88,-651.07 488,-662.88 556.7,-697.93 766.85,-694.3 896.03,-688.25"/>
<polygon fill="#757575" stroke="#757575" points="896.17,-691.75 905.99,-687.77 895.83,-684.76 896.17,-691.75"/>
</g>
<!-- pages/merge/steps/MergePreviewStep.tsx -->
<g id="node53" class="node">
<title>pages/merge/steps/MergePreviewStep.tsx</title>
<path fill="none" stroke="#cfffac" d="M803.58,-653.75C803.58,-653.75 548.42,-653.75 548.42,-653.75 544.46,-653.75 540.5,-649.79 540.5,-645.83 540.5,-645.83 540.5,-637.92 540.5,-637.92 540.5,-633.96 544.46,-630 548.42,-630 548.42,-630 803.58,-630 803.58,-630 807.54,-630 811.5,-633.96 811.5,-637.92 811.5,-637.92 811.5,-645.83 811.5,-645.83 811.5,-649.79 807.54,-653.75 803.58,-653.75"/>
<text text-anchor="middle" x="676" y="-636.45" font-family="Arial" font-size="14.00" fill="#cfffac">pages/merge/steps/MergePreviewStep.tsx</text>
</g>
<!-- pages/merge/MergeObjectsPage.tsx&#45;&gt;pages/merge/steps/MergePreviewStep.tsx -->
<g id="edge60" class="edge">
<title>pages/merge/MergeObjectsPage.tsx&#45;&gt;pages/merge/steps/MergePreviewStep.tsx</title>
<path fill="none" stroke="#757575" d="M379.52,-608.22C414.03,-612.29 452.66,-616.81 488,-620.88 509,-623.29 531.34,-625.83 552.99,-628.27"/>
<polygon fill="#757575" stroke="#757575" points="552.41,-631.72 562.74,-629.37 553.19,-624.77 552.41,-631.72"/>
</g>
<!-- pages/merge/steps/MergeRuleStep.tsx -->
<g id="node54" class="node">
<title>pages/merge/steps/MergeRuleStep.tsx</title>
<path fill="none" stroke="#cfffac" d="M793.46,-611.75C793.46,-611.75 558.54,-611.75 558.54,-611.75 554.58,-611.75 550.62,-607.79 550.62,-603.83 550.62,-603.83 550.62,-595.92 550.62,-595.92 550.62,-591.96 554.58,-588 558.54,-588 558.54,-588 793.46,-588 793.46,-588 797.42,-588 801.38,-591.96 801.38,-595.92 801.38,-595.92 801.38,-603.83 801.38,-603.83 801.38,-607.79 797.42,-611.75 793.46,-611.75"/>
<text text-anchor="middle" x="676" y="-594.45" font-family="Arial" font-size="14.00" fill="#cfffac">pages/merge/steps/MergeRuleStep.tsx</text>
</g>
<!-- pages/merge/MergeObjectsPage.tsx&#45;&gt;pages/merge/steps/MergeRuleStep.tsx -->
<g id="edge61" class="edge">
<title>pages/merge/MergeObjectsPage.tsx&#45;&gt;pages/merge/steps/MergeRuleStep.tsx</title>
<path fill="none" stroke="#757575" d="M393.47,-597.06C439.17,-597.51 491.77,-598.04 539.04,-598.51"/>
<polygon fill="#757575" stroke="#757575" points="538.76,-602.01 548.79,-598.61 538.83,-595.01 538.76,-602.01"/>
</g>
<!-- pages/merge/steps/ObjectSelectionStep.tsx -->
<g id="node55" class="node">
<title>pages/merge/steps/ObjectSelectionStep.tsx</title>
<path fill="none" stroke="#cfffac" d="M807.71,-569.75C807.71,-569.75 544.29,-569.75 544.29,-569.75 540.33,-569.75 536.38,-565.79 536.38,-561.83 536.38,-561.83 536.38,-553.92 536.38,-553.92 536.38,-549.96 540.33,-546 544.29,-546 544.29,-546 807.71,-546 807.71,-546 811.67,-546 815.62,-549.96 815.62,-553.92 815.62,-553.92 815.62,-561.83 815.62,-561.83 815.62,-565.79 811.67,-569.75 807.71,-569.75"/>
<text text-anchor="middle" x="676" y="-552.45" font-family="Arial" font-size="14.00" fill="#cfffac">pages/merge/steps/ObjectSelectionStep.tsx</text>
</g>
<!-- pages/merge/MergeObjectsPage.tsx&#45;&gt;pages/merge/steps/ObjectSelectionStep.tsx -->
<g id="edge62" class="edge">
<title>pages/merge/MergeObjectsPage.tsx&#45;&gt;pages/merge/steps/ObjectSelectionStep.tsx</title>
<path fill="none" stroke="#757575" d="M393.47,-584.65C437.48,-580.47 487.89,-575.67 533.77,-571.31"/>
<polygon fill="#757575" stroke="#757575" points="533.9,-574.81 543.52,-570.38 533.23,-567.84 533.9,-574.81"/>
</g>
<!-- pages/object/ObjectsPage.tsx -->
<g id="node56" class="node">
<title>pages/object/ObjectsPage.tsx</title>
<path fill="none" stroke="#cfffac" d="M765.71,-527.75C765.71,-527.75 586.29,-527.75 586.29,-527.75 582.33,-527.75 578.38,-523.79 578.38,-519.83 578.38,-519.83 578.38,-511.92 578.38,-511.92 578.38,-507.96 582.33,-504 586.29,-504 586.29,-504 765.71,-504 765.71,-504 769.67,-504 773.62,-507.96 773.62,-511.92 773.62,-511.92 773.62,-519.83 773.62,-519.83 773.62,-523.79 769.67,-527.75 765.71,-527.75"/>
<text text-anchor="middle" x="676" y="-510.45" font-family="Arial" font-size="14.00" fill="#cfffac">pages/object/ObjectsPage.tsx</text>
</g>
<!-- pages/object/index.ts&#45;&gt;pages/object/ObjectsPage.tsx -->
<g id="edge63" class="edge">
<title>pages/object/index.ts&#45;&gt;pages/object/ObjectsPage.tsx</title>
<path fill="none" stroke="#757575" d="M346,-547.17C407.24,-541.34 496.88,-532.82 567.13,-526.14"/>
<polygon fill="#757575" stroke="#757575" points="567.1,-529.65 576.72,-525.22 566.44,-522.69 567.1,-529.65"/>
</g>
<!-- pages/object/object&#45;detail/ObjectDetailPage.tsx -->
<g id="node57" class="node">
<title>pages/object/object&#45;detail/ObjectDetailPage.tsx</title>
<path fill="none" stroke="#cfffac" d="M817.83,-485.75C817.83,-485.75 534.17,-485.75 534.17,-485.75 530.21,-485.75 526.25,-481.79 526.25,-477.83 526.25,-477.83 526.25,-469.92 526.25,-469.92 526.25,-465.96 530.21,-462 534.17,-462 534.17,-462 817.83,-462 817.83,-462 821.79,-462 825.75,-465.96 825.75,-469.92 825.75,-469.92 825.75,-477.83 825.75,-477.83 825.75,-481.79 821.79,-485.75 817.83,-485.75"/>
<text text-anchor="middle" x="676" y="-468.45" font-family="Arial" font-size="14.00" fill="#cfffac">pages/object/object&#45;detail/ObjectDetailPage.tsx</text>
</g>
<!-- pages/object/index.ts&#45;&gt;pages/object/object&#45;detail/ObjectDetailPage.tsx -->
<g id="edge64" class="edge">
<title>pages/object/index.ts&#45;&gt;pages/object/object&#45;detail/ObjectDetailPage.tsx</title>
<path fill="none" stroke="#757575" d="M346.13,-556.38C379.76,-554.91 419.6,-549.15 452,-532.88 472.79,-522.43 467.18,-505.25 488,-494.88 496.71,-490.54 505.93,-486.92 515.41,-483.92"/>
<polygon fill="#757575" stroke="#757575" points="516.14,-487.36 524.77,-481.22 514.19,-480.63 516.14,-487.36"/>
</g>
<!-- pages/settings/funnel&#45;config&#45;page/EditStepNameDialog.tsx -->
<g id="node64" class="node">
<title>pages/settings/funnel&#45;config&#45;page/EditStepNameDialog.tsx</title>
<path fill="none" stroke="#cfffac" d="M852.71,-443.75C852.71,-443.75 499.29,-443.75 499.29,-443.75 495.33,-443.75 491.38,-439.79 491.38,-435.83 491.38,-435.83 491.38,-427.92 491.38,-427.92 491.38,-423.96 495.33,-420 499.29,-420 499.29,-420 852.71,-420 852.71,-420 856.67,-420 860.62,-423.96 860.62,-427.92 860.62,-427.92 860.62,-435.83 860.62,-435.83 860.62,-439.79 856.67,-443.75 852.71,-443.75"/>
<text text-anchor="middle" x="676" y="-426.45" font-family="Arial" font-size="14.00" fill="#cfffac">pages/settings/funnel&#45;config&#45;page/EditStepNameDialog.tsx</text>
</g>
<!-- pages/settings/funnel&#45;config&#45;page/FunnelConfigPage.tsx&#45;&gt;pages/settings/funnel&#45;config&#45;page/EditStepNameDialog.tsx -->
<g id="edge68" class="edge">
<title>pages/settings/funnel&#45;config&#45;page/FunnelConfigPage.tsx&#45;&gt;pages/settings/funnel&#45;config&#45;page/EditStepNameDialog.tsx</title>
<path fill="none" stroke="#757575" d="M452.47,-419.06C461.5,-419.58 470.58,-420.11 479.66,-420.63"/>
<polygon fill="#757575" stroke="#757575" points="479.45,-424.12 489.63,-421.2 479.85,-417.13 479.45,-424.12"/>
</g>
<!-- pages/settings/funnel&#45;config&#45;page/MarkdownModal.tsx -->
<g id="node65" class="node">
<title>pages/settings/funnel&#45;config&#45;page/MarkdownModal.tsx</title>
<path fill="none" stroke="#cfffac" d="M839.96,-401.75C839.96,-401.75 512.04,-401.75 512.04,-401.75 508.08,-401.75 504.12,-397.79 504.12,-393.83 504.12,-393.83 504.12,-385.92 504.12,-385.92 504.12,-381.96 508.08,-378 512.04,-378 512.04,-378 839.96,-378 839.96,-378 843.92,-378 847.88,-381.96 847.88,-385.92 847.88,-385.92 847.88,-393.83 847.88,-393.83 847.88,-397.79 843.92,-401.75 839.96,-401.75"/>
<text text-anchor="middle" x="676" y="-384.45" font-family="Arial" font-size="14.00" fill="#cfffac">pages/settings/funnel&#45;config&#45;page/MarkdownModal.tsx</text>
</g>
<!-- pages/settings/funnel&#45;config&#45;page/FunnelConfigPage.tsx&#45;&gt;pages/settings/funnel&#45;config&#45;page/MarkdownModal.tsx -->
<g id="edge69" class="edge">
<title>pages/settings/funnel&#45;config&#45;page/FunnelConfigPage.tsx&#45;&gt;pages/settings/funnel&#45;config&#45;page/MarkdownModal.tsx</title>
<path fill="none" stroke="#757575" d="M452.47,-400.46C465.76,-399.83 479.19,-399.19 492.51,-398.55"/>
<polygon fill="#757575" stroke="#757575" points="492.33,-402.07 502.16,-398.1 492,-395.07 492.33,-402.07"/>
</g>
<!-- pages/settings/funnel&#45;config&#45;page/ResizableFunnelTable.tsx -->
<g id="node66" class="node">
<title>pages/settings/funnel&#45;config&#45;page/ResizableFunnelTable.tsx</title>
<path fill="none" stroke="#cfffac" d="M856.08,-359.75C856.08,-359.75 495.92,-359.75 495.92,-359.75 491.96,-359.75 488,-355.79 488,-351.83 488,-351.83 488,-343.92 488,-343.92 488,-339.96 491.96,-336 495.92,-336 495.92,-336 856.08,-336 856.08,-336 860.04,-336 864,-339.96 864,-343.92 864,-343.92 864,-351.83 864,-351.83 864,-355.79 860.04,-359.75 856.08,-359.75"/>
<text text-anchor="middle" x="676" y="-342.45" font-family="Arial" font-size="14.00" fill="#cfffac">pages/settings/funnel&#45;config&#45;page/ResizableFunnelTable.tsx</text>
</g>
<!-- pages/settings/funnel&#45;config&#45;page/FunnelConfigPage.tsx&#45;&gt;pages/settings/funnel&#45;config&#45;page/ResizableFunnelTable.tsx -->
<g id="edge70" class="edge">
<title>pages/settings/funnel&#45;config&#45;page/FunnelConfigPage.tsx&#45;&gt;pages/settings/funnel&#45;config&#45;page/ResizableFunnelTable.tsx</title>
<path fill="none" stroke="#757575" d="M334.38,-396.58C376.93,-387.99 435.84,-376.7 488,-368.88 505.39,-366.27 523.74,-363.82 541.86,-361.6"/>
<polygon fill="#757575" stroke="#757575" points="542.1,-365.09 551.61,-360.42 541.26,-358.14 542.1,-365.09"/>
</g>
<!-- pages/settings/FunnelsPage.tsx -->
<g id="node58" class="node">
<title>pages/settings/FunnelsPage.tsx</title>
<path fill="none" stroke="#c6c5fe" d="M771.71,-317.75C771.71,-317.75 580.29,-317.75 580.29,-317.75 576.33,-317.75 572.38,-313.79 572.38,-309.83 572.38,-309.83 572.38,-301.92 572.38,-301.92 572.38,-297.96 576.33,-294 580.29,-294 580.29,-294 771.71,-294 771.71,-294 775.67,-294 779.62,-297.96 779.62,-301.92 779.62,-301.92 779.62,-309.83 779.62,-309.83 779.62,-313.79 775.67,-317.75 771.71,-317.75"/>
<text text-anchor="middle" x="676" y="-300.45" font-family="Arial" font-size="14.00" fill="#c6c5fe">pages/settings/FunnelsPage.tsx</text>
</g>
<!-- pages/settings/index.ts&#45;&gt;pages/settings/FunnelsPage.tsx -->
<g id="edge71" class="edge">
<title>pages/settings/index.ts&#45;&gt;pages/settings/FunnelsPage.tsx</title>
<path fill="none" stroke="#757575" d="M351.58,-271.87C410.77,-278.1 493.84,-286.83 560.97,-293.89"/>
<polygon fill="#757575" stroke="#757575" points="560.21,-297.33 570.52,-294.89 560.95,-290.36 560.21,-297.33"/>
</g>
<!-- pages/settings/ListsPage.tsx -->
<g id="node60" class="node">
<title>pages/settings/ListsPage.tsx</title>
<path fill="none" stroke="#cfffac" d="M761.58,-275.75C761.58,-275.75 590.42,-275.75 590.42,-275.75 586.46,-275.75 582.5,-271.79 582.5,-267.83 582.5,-267.83 582.5,-259.92 582.5,-259.92 582.5,-255.96 586.46,-252 590.42,-252 590.42,-252 761.58,-252 761.58,-252 765.54,-252 769.5,-255.96 769.5,-259.92 769.5,-259.92 769.5,-267.83 769.5,-267.83 769.5,-271.79 765.54,-275.75 761.58,-275.75"/>
<text text-anchor="middle" x="676" y="-258.45" font-family="Arial" font-size="14.00" fill="#cfffac">pages/settings/ListsPage.tsx</text>
</g>
<!-- pages/settings/index.ts&#45;&gt;pages/settings/ListsPage.tsx -->
<g id="edge72" class="edge">
<title>pages/settings/index.ts&#45;&gt;pages/settings/ListsPage.tsx</title>
<path fill="none" stroke="#757575" d="M351.58,-263.88C413.77,-263.88 502.33,-263.88 571.06,-263.88"/>
<polygon fill="#757575" stroke="#757575" points="570.83,-267.38 580.83,-263.88 570.83,-260.38 570.83,-267.38"/>
</g>
<!-- pages/settings/ObjectTypesPage.tsx -->
<g id="node61" class="node">
<title>pages/settings/ObjectTypesPage.tsx</title>
<path fill="none" stroke="#cfffac" d="M785.58,-233.75C785.58,-233.75 566.42,-233.75 566.42,-233.75 562.46,-233.75 558.5,-229.79 558.5,-225.83 558.5,-225.83 558.5,-217.92 558.5,-217.92 558.5,-213.96 562.46,-210 566.42,-210 566.42,-210 785.58,-210 785.58,-210 789.54,-210 793.5,-213.96 793.5,-217.92 793.5,-217.92 793.5,-225.83 793.5,-225.83 793.5,-229.79 789.54,-233.75 785.58,-233.75"/>
<text text-anchor="middle" x="676" y="-216.45" font-family="Arial" font-size="14.00" fill="#cfffac">pages/settings/ObjectTypesPage.tsx</text>
</g>
<!-- pages/settings/index.ts&#45;&gt;pages/settings/ObjectTypesPage.tsx -->
<g id="edge73" class="edge">
<title>pages/settings/index.ts&#45;&gt;pages/settings/ObjectTypesPage.tsx</title>
<path fill="none" stroke="#757575" d="M351.58,-255.88C406.8,-250.07 482.8,-242.08 547.25,-235.31"/>
<polygon fill="#757575" stroke="#757575" points="547.23,-238.83 556.81,-234.3 546.49,-231.87 547.23,-238.83"/>
</g>
<!-- pages/settings/SettingsPage.tsx -->
<g id="node62" class="node">
<title>pages/settings/SettingsPage.tsx</title>
<path fill="none" stroke="#cfffac" d="M772.08,-191.75C772.08,-191.75 579.92,-191.75 579.92,-191.75 575.96,-191.75 572,-187.79 572,-183.83 572,-183.83 572,-175.92 572,-175.92 572,-171.96 575.96,-168 579.92,-168 579.92,-168 772.08,-168 772.08,-168 776.04,-168 780,-171.96 780,-175.92 780,-175.92 780,-183.83 780,-183.83 780,-187.79 776.04,-191.75 772.08,-191.75"/>
<text text-anchor="middle" x="676" y="-174.45" font-family="Arial" font-size="14.00" fill="#cfffac">pages/settings/SettingsPage.tsx</text>
</g>
<!-- pages/settings/index.ts&#45;&gt;pages/settings/SettingsPage.tsx -->
<g id="edge74" class="edge">
<title>pages/settings/index.ts&#45;&gt;pages/settings/SettingsPage.tsx</title>
<path fill="none" stroke="#757575" d="M351.27,-266.86C383.92,-265.2 421.51,-259.15 452,-242.88 473.69,-231.3 466.27,-212.38 488,-200.88 510.03,-189.21 535.55,-182.63 560.51,-179.15"/>
<polygon fill="#757575" stroke="#757575" points="560.92,-182.62 570.42,-177.94 560.07,-175.67 560.92,-182.62"/>
</g>
<!-- pages/settings/TagsPage.tsx -->
<g id="node63" class="node">
<title>pages/settings/TagsPage.tsx</title>
<path fill="none" stroke="#cfffac" d="M761.96,-149.75C761.96,-149.75 590.04,-149.75 590.04,-149.75 586.08,-149.75 582.12,-145.79 582.12,-141.83 582.12,-141.83 582.12,-133.92 582.12,-133.92 582.12,-129.96 586.08,-126 590.04,-126 590.04,-126 761.96,-126 761.96,-126 765.92,-126 769.88,-129.96 769.88,-133.92 769.88,-133.92 769.88,-141.83 769.88,-141.83 769.88,-145.79 765.92,-149.75 761.96,-149.75"/>
<text text-anchor="middle" x="676" y="-132.45" font-family="Arial" font-size="14.00" fill="#cfffac">pages/settings/TagsPage.tsx</text>
</g>
<!-- pages/settings/index.ts&#45;&gt;pages/settings/TagsPage.tsx -->
<g id="edge75" class="edge">
<title>pages/settings/index.ts&#45;&gt;pages/settings/TagsPage.tsx</title>
<path fill="none" stroke="#757575" d="M351.29,-271.12C385.08,-270.53 423.58,-264.13 452,-242.88 484.53,-218.55 455.39,-183.09 488,-158.88 511.6,-141.34 541.72,-133.54 570.86,-130.8"/>
<polygon fill="#757575" stroke="#757575" points="570.74,-134.32 580.46,-130.09 570.23,-127.34 570.74,-134.32"/>
</g>
<!-- pages/tasks/TasksPage.tsx -->
<g id="node67" class="node">
<title>pages/tasks/TasksPage.tsx</title>
<path fill="none" stroke="#cfffac" d="M757.46,-107.75C757.46,-107.75 594.54,-107.75 594.54,-107.75 590.58,-107.75 586.62,-103.79 586.62,-99.83 586.62,-99.83 586.62,-91.92 586.62,-91.92 586.62,-87.96 590.58,-84 594.54,-84 594.54,-84 757.46,-84 757.46,-84 761.42,-84 765.38,-87.96 765.38,-91.92 765.38,-91.92 765.38,-99.83 765.38,-99.83 765.38,-103.79 761.42,-107.75 757.46,-107.75"/>
<text text-anchor="middle" x="676" y="-90.45" font-family="Arial" font-size="14.00" fill="#cfffac">pages/tasks/TasksPage.tsx</text>
</g>
<!-- pages/tasks/index.ts&#45;&gt;pages/tasks/TasksPage.tsx -->
<g id="edge76" class="edge">
<title>pages/tasks/index.ts&#45;&gt;pages/tasks/TasksPage.tsx</title>
<path fill="none" stroke="#757575" d="M343.88,-229.17C379.33,-229.39 421.48,-223.7 452,-200.88 484.53,-176.55 455.39,-141.09 488,-116.88 512.76,-98.48 544.69,-90.8 575.13,-88.43"/>
<polygon fill="#757575" stroke="#757575" points="574.97,-91.95 584.75,-87.87 574.57,-84.96 574.97,-91.95"/>
</g>
<!-- pages/views/ViewDetailPage.tsx -->
<g id="node68" class="node">
<title>pages/views/ViewDetailPage.tsx</title>
<path fill="none" stroke="#cfffac" d="M773.21,-65.75C773.21,-65.75 578.79,-65.75 578.79,-65.75 574.83,-65.75 570.88,-61.79 570.88,-57.83 570.88,-57.83 570.88,-49.92 570.88,-49.92 570.88,-45.96 574.83,-42 578.79,-42 578.79,-42 773.21,-42 773.21,-42 777.17,-42 781.12,-45.96 781.12,-49.92 781.12,-49.92 781.12,-57.83 781.12,-57.83 781.12,-61.79 777.17,-65.75 773.21,-65.75"/>
<text text-anchor="middle" x="676" y="-48.45" font-family="Arial" font-size="14.00" fill="#cfffac">pages/views/ViewDetailPage.tsx</text>
</g>
<!-- pages/views/index.ts&#45;&gt;pages/views/ViewDetailPage.tsx -->
<g id="edge77" class="edge">
<title>pages/views/index.ts&#45;&gt;pages/views/ViewDetailPage.tsx</title>
<path fill="none" stroke="#757575" d="M345.17,-187.17C380.35,-187.25 421.85,-181.42 452,-158.88 484.53,-134.55 455.39,-99.09 488,-74.88 508.56,-59.6 534.07,-51.72 559.56,-48.12"/>
<polygon fill="#757575" stroke="#757575" points="559.83,-51.61 569.36,-46.97 559.02,-44.66 559.83,-51.61"/>
</g>
<!-- pages/views/ViewsPage.tsx -->
<g id="node69" class="node">
<title>pages/views/ViewsPage.tsx</title>
<path fill="none" stroke="#cfffac" d="M759.33,-23.75C759.33,-23.75 592.67,-23.75 592.67,-23.75 588.71,-23.75 584.75,-19.79 584.75,-15.83 584.75,-15.83 584.75,-7.92 584.75,-7.92 584.75,-3.96 588.71,0 592.67,0 592.67,0 759.33,0 759.33,0 763.29,0 767.25,-3.96 767.25,-7.92 767.25,-7.92 767.25,-15.83 767.25,-15.83 767.25,-19.79 763.29,-23.75 759.33,-23.75"/>
<text text-anchor="middle" x="676" y="-6.45" font-family="Arial" font-size="14.00" fill="#cfffac">pages/views/ViewsPage.tsx</text>
</g>
<!-- pages/views/index.ts&#45;&gt;pages/views/ViewsPage.tsx -->
<g id="edge78" class="edge">
<title>pages/views/index.ts&#45;&gt;pages/views/ViewsPage.tsx</title>
<path fill="none" stroke="#757575" d="M345.08,-188.68C380.89,-189.34 422.99,-183.59 452,-158.88 496.34,-121.11 443.54,-70.49 488,-32.88 511.44,-13.05 542.86,-4.95 573.25,-2.64"/>
<polygon fill="#757575" stroke="#757575" points="573.08,-6.15 582.87,-2.12 572.7,0.84 573.08,-6.15"/>
</g>
<!-- components/FaIconList.tsx -->
<g id="node23" class="node">
<title>components/FaIconList.tsx</title>
<path fill="none" stroke="#cfffac" d="M1703.21,-735.75C1703.21,-735.75 1541.79,-735.75 1541.79,-735.75 1537.83,-735.75 1533.88,-731.79 1533.88,-727.83 1533.88,-727.83 1533.88,-719.92 1533.88,-719.92 1533.88,-715.96 1537.83,-712 1541.79,-712 1541.79,-712 1703.21,-712 1703.21,-712 1707.17,-712 1711.12,-715.96 1711.12,-719.92 1711.12,-719.92 1711.12,-727.83 1711.12,-727.83 1711.12,-731.79 1707.17,-735.75 1703.21,-735.75"/>
<text text-anchor="middle" x="1622.5" y="-718.45" font-family="Arial" font-size="14.00" fill="#cfffac">components/FaIconList.tsx</text>
</g>
<!-- components/mardown/MarkdownDisplay.tsx -->
<g id="node25" class="node">
<title>components/mardown/MarkdownDisplay.tsx</title>
<path fill="none" stroke="#cfffac" d="M2430.08,-899.75C2430.08,-899.75 2164.42,-899.75 2164.42,-899.75 2160.46,-899.75 2156.5,-895.79 2156.5,-891.83 2156.5,-891.83 2156.5,-883.92 2156.5,-883.92 2156.5,-879.96 2160.46,-876 2164.42,-876 2164.42,-876 2430.08,-876 2430.08,-876 2434.04,-876 2438,-879.96 2438,-883.92 2438,-883.92 2438,-891.83 2438,-891.83 2438,-895.79 2434.04,-899.75 2430.08,-899.75"/>
<text text-anchor="middle" x="2297.25" y="-882.45" font-family="Arial" font-size="14.00" fill="#cfffac">components/mardown/MarkdownDisplay.tsx</text>
</g>
<!-- components/FactItem.tsx&#45;&gt;components/mardown/MarkdownDisplay.tsx -->
<g id="edge21" class="edge">
<title>components/FactItem.tsx&#45;&gt;components/mardown/MarkdownDisplay.tsx</title>
<path fill="none" stroke="#757575" d="M2042.8,-964.46C2067.97,-961.29 2095.55,-956.9 2120.5,-950.88 2168.9,-939.19 2222.49,-918.84 2257.62,-904.44"/>
<polygon fill="#757575" stroke="#757575" points="2258.61,-907.82 2266.51,-900.76 2255.93,-901.35 2258.61,-907.82"/>
</g>
<!-- components/TaskItem.tsx&#45;&gt;components/mardown/MarkdownDisplay.tsx -->
<g id="edge22" class="edge">
<title>components/TaskItem.tsx&#45;&gt;components/mardown/MarkdownDisplay.tsx</title>
<path fill="none" stroke="#757575" d="M2043.51,-887.88C2074.29,-887.88 2110.12,-887.88 2144.96,-887.88"/>
<polygon fill="#757575" stroke="#757575" points="2144.72,-891.38 2154.72,-887.88 2144.72,-884.38 2144.72,-891.38"/>
</g>
<!-- components/forms/FactForm.tsx -->
<g id="node28" class="node">
<title>components/forms/FactForm.tsx</title>
<path fill="none" stroke="#c6c5fe" d="M1392.83,-890.75C1392.83,-890.75 1196.92,-890.75 1196.92,-890.75 1192.96,-890.75 1189,-886.79 1189,-882.83 1189,-882.83 1189,-874.92 1189,-874.92 1189,-870.96 1192.96,-867 1196.92,-867 1196.92,-867 1392.83,-867 1392.83,-867 1396.79,-867 1400.75,-870.96 1400.75,-874.92 1400.75,-874.92 1400.75,-882.83 1400.75,-882.83 1400.75,-886.79 1396.79,-890.75 1392.83,-890.75"/>
<text text-anchor="middle" x="1294.88" y="-873.45" font-family="Arial" font-size="14.00" fill="#c6c5fe">components/forms/FactForm.tsx</text>
</g>
<!-- components/forms/FactForm.tsx&#45;&gt;components/spot&#45;light/SpotLight.tsx -->
<g id="edge23" class="edge">
<title>components/forms/FactForm.tsx&#45;&gt;components/spot&#45;light/SpotLight.tsx</title>
<path fill="none" stroke="#757575" d="M1401.15,-882.11C1431.27,-883.03 1464.4,-884.05 1495.62,-885.01"/>
<polygon fill="#757575" stroke="#757575" points="1495.41,-888.5 1505.51,-885.31 1495.63,-881.51 1495.41,-888.5"/>
</g>
<!-- components/forms/ListForm.tsx -->
<g id="node29" class="node">
<title>components/forms/ListForm.tsx</title>
<path fill="none" stroke="#c6c5fe" d="M1390.21,-777.75C1390.21,-777.75 1199.54,-777.75 1199.54,-777.75 1195.58,-777.75 1191.62,-773.79 1191.62,-769.83 1191.62,-769.83 1191.62,-761.92 1191.62,-761.92 1191.62,-757.96 1195.58,-754 1199.54,-754 1199.54,-754 1390.21,-754 1390.21,-754 1394.17,-754 1398.12,-757.96 1398.12,-761.92 1398.12,-761.92 1398.12,-769.83 1398.12,-769.83 1398.12,-773.79 1394.17,-777.75 1390.21,-777.75"/>
<text text-anchor="middle" x="1294.88" y="-760.45" font-family="Arial" font-size="14.00" fill="#c6c5fe">components/forms/ListForm.tsx</text>
</g>
<!-- components/mardown/MardownEditor.tsx -->
<g id="node30" class="node">
<title>components/mardown/MardownEditor.tsx</title>
<path fill="none" stroke="#c6c5fe" d="M1747.46,-777.75C1747.46,-777.75 1497.54,-777.75 1497.54,-777.75 1493.58,-777.75 1489.62,-773.79 1489.62,-769.83 1489.62,-769.83 1489.62,-761.92 1489.62,-761.92 1489.62,-757.96 1493.58,-754 1497.54,-754 1497.54,-754 1747.46,-754 1747.46,-754 1751.42,-754 1755.38,-757.96 1755.38,-761.92 1755.38,-761.92 1755.38,-769.83 1755.38,-769.83 1755.38,-773.79 1751.42,-777.75 1747.46,-777.75"/>
<text text-anchor="middle" x="1622.5" y="-760.45" font-family="Arial" font-size="14.00" fill="#c6c5fe">components/mardown/MardownEditor.tsx</text>
</g>
<!-- components/forms/ListForm.tsx&#45;&gt;components/mardown/MardownEditor.tsx -->
<g id="edge24" class="edge">
<title>components/forms/ListForm.tsx&#45;&gt;components/mardown/MardownEditor.tsx</title>
<path fill="none" stroke="#757575" d="M1398.46,-765.88C1423.66,-765.88 1451.1,-765.88 1477.85,-765.88"/>
<polygon fill="#757575" stroke="#757575" points="1477.74,-769.38 1487.74,-765.88 1477.74,-762.38 1477.74,-769.38"/>
</g>
<!-- components/mardown/MardownEditor.tsx&#45;&gt;components/mardown/MarkdownDisplay.tsx -->
<g id="edge42" class="edge">
<title>components/mardown/MardownEditor.tsx&#45;&gt;components/mardown/MarkdownDisplay.tsx</title>
<path fill="none" stroke="#757575" d="M1724.43,-778.22C1748,-781.08 1773,-784.1 1796.25,-786.88 1940.32,-804.07 1979.24,-791.74 2120.5,-824.88 2169.12,-836.28 2222.87,-856.77 2257.97,-871.29"/>
<polygon fill="#757575" stroke="#757575" points="2256.26,-874.37 2266.84,-875 2258.97,-867.91 2256.26,-874.37"/>
</g>
<!-- components/mardown/utils.ts -->
<g id="node43" class="node">
<title>components/mardown/utils.ts</title>
<path fill="none" stroke="#cfffac" d="M2046.58,-777.75C2046.58,-777.75 1870.17,-777.75 1870.17,-777.75 1866.21,-777.75 1862.25,-773.79 1862.25,-769.83 1862.25,-769.83 1862.25,-761.92 1862.25,-761.92 1862.25,-757.96 1866.21,-754 1870.17,-754 1870.17,-754 2046.58,-754 2046.58,-754 2050.54,-754 2054.5,-757.96 2054.5,-761.92 2054.5,-761.92 2054.5,-769.83 2054.5,-769.83 2054.5,-773.79 2050.54,-777.75 2046.58,-777.75"/>
<text text-anchor="middle" x="1958.38" y="-760.45" font-family="Arial" font-size="14.00" fill="#cfffac">components/mardown/utils.ts</text>
</g>
<!-- components/mardown/MardownEditor.tsx&#45;&gt;components/mardown/utils.ts -->
<g id="edge43" class="edge">
<title>components/mardown/MardownEditor.tsx&#45;&gt;components/mardown/utils.ts</title>
<path fill="none" stroke="#757575" d="M1755.46,-765.88C1786.97,-765.88 1820.23,-765.88 1850.46,-765.88"/>
<polygon fill="#757575" stroke="#757575" points="1850.37,-769.38 1860.37,-765.88 1850.37,-762.38 1850.37,-769.38"/>
</g>
<!-- components/forms/ObjectTypeForm.tsx -->
<g id="node31" class="node">
<title>components/forms/ObjectTypeForm.tsx</title>
<path fill="none" stroke="#c6c5fe" d="M1414.21,-735.75C1414.21,-735.75 1175.54,-735.75 1175.54,-735.75 1171.58,-735.75 1167.62,-731.79 1167.62,-727.83 1167.62,-727.83 1167.62,-719.92 1167.62,-719.92 1167.62,-715.96 1171.58,-712 1175.54,-712 1175.54,-712 1414.21,-712 1414.21,-712 1418.17,-712 1422.12,-715.96 1422.12,-719.92 1422.12,-719.92 1422.12,-727.83 1422.12,-727.83 1422.12,-731.79 1418.17,-735.75 1414.21,-735.75"/>
<text text-anchor="middle" x="1294.88" y="-718.45" font-family="Arial" font-size="14.00" fill="#c6c5fe">components/forms/ObjectTypeForm.tsx</text>
</g>
<!-- components/forms/ObjectTypeForm.tsx&#45;&gt;components/FaIconList.tsx -->
<g id="edge25" class="edge">
<title>components/forms/ObjectTypeForm.tsx&#45;&gt;components/FaIconList.tsx</title>
<path fill="none" stroke="#757575" d="M1422.24,-723.88C1455.35,-723.88 1490.59,-723.88 1522.08,-723.88"/>
<polygon fill="#757575" stroke="#757575" points="1521.99,-727.38 1531.99,-723.88 1521.99,-720.38 1521.99,-727.38"/>
</g>
<!-- components/forms/ObjectTypeForm.tsx&#45;&gt;components/mardown/MardownEditor.tsx -->
<g id="edge26" class="edge">
<title>components/forms/ObjectTypeForm.tsx&#45;&gt;components/mardown/MardownEditor.tsx</title>
<path fill="none" stroke="#757575" d="M1391.81,-736.25C1430.31,-741.22 1474.85,-746.96 1514.4,-752.06"/>
<polygon fill="#757575" stroke="#757575" points="1513.82,-755.52 1524.19,-753.32 1514.72,-748.57 1513.82,-755.52"/>
</g>
<!-- components/rich&#45;object&#45;form/ObjectType.ts -->
<g id="node32" class="node">
<title>components/rich&#45;object&#45;form/ObjectType.ts</title>
<path fill="none" stroke="#ff6c60" d="M1752.33,-693.75C1752.33,-693.75 1492.67,-693.75 1492.67,-693.75 1488.71,-693.75 1484.75,-689.79 1484.75,-685.83 1484.75,-685.83 1484.75,-677.92 1484.75,-677.92 1484.75,-673.96 1488.71,-670 1492.67,-670 1492.67,-670 1752.33,-670 1752.33,-670 1756.29,-670 1760.25,-673.96 1760.25,-677.92 1760.25,-677.92 1760.25,-685.83 1760.25,-685.83 1760.25,-689.79 1756.29,-693.75 1752.33,-693.75"/>
<text text-anchor="middle" x="1622.5" y="-676.45" font-family="Arial" font-size="14.00" fill="#ff6c60">components/rich&#45;object&#45;form/ObjectType.ts</text>
</g>
<!-- components/forms/ObjectTypeForm.tsx&#45;&gt;components/rich&#45;object&#45;form/ObjectType.ts -->
<g id="edge27" class="edge">
<title>components/forms/ObjectTypeForm.tsx&#45;&gt;components/rich&#45;object&#45;form/ObjectType.ts</title>
<path fill="none" stroke="#757575" d="M1391.81,-711.5C1430.31,-706.53 1474.85,-700.79 1514.4,-695.69"/>
<polygon fill="#757575" stroke="#757575" points="1514.72,-699.18 1524.19,-694.43 1513.82,-692.23 1514.72,-699.18"/>
</g>
<!-- components/rich&#45;object&#45;form/elements/ElImage.tsx -->
<g id="node44" class="node">
<title>components/rich&#45;object&#45;form/elements/ElImage.tsx</title>
<path fill="none" stroke="#ff6c60" d="M2111.83,-735.75C2111.83,-735.75 1804.92,-735.75 1804.92,-735.75 1800.96,-735.75 1797,-731.79 1797,-727.83 1797,-727.83 1797,-719.92 1797,-719.92 1797,-715.96 1800.96,-712 1804.92,-712 1804.92,-712 2111.83,-712 2111.83,-712 2115.79,-712 2119.75,-715.96 2119.75,-719.92 2119.75,-719.92 2119.75,-727.83 2119.75,-727.83 2119.75,-731.79 2115.79,-735.75 2111.83,-735.75"/>
<text text-anchor="middle" x="1958.38" y="-718.45" font-family="Arial" font-size="14.00" fill="#ff6c60">components/rich&#45;object&#45;form/elements/ElImage.tsx</text>
</g>
<!-- components/rich&#45;object&#45;form/ObjectType.ts&#45;&gt;components/rich&#45;object&#45;form/elements/ElImage.tsx -->
<g id="edge44" class="edge">
<title>components/rich&#45;object&#45;form/ObjectType.ts&#45;&gt;components/rich&#45;object&#45;form/elements/ElImage.tsx</title>
<path fill="none" stroke="#757575" d="M1760.75,-692.49C1805.24,-697.79 1852.65,-704.12 1889.76,-709.82"/>
<polygon fill="#757575" stroke="#757575" points="1889.02,-713.25 1899.44,-711.33 1890.1,-706.33 1889.02,-713.25"/>
</g>
<!-- components/rich&#45;object&#45;form/elements/ElObject.tsx -->
<g id="node45" class="node">
<title>components/rich&#45;object&#45;form/elements/ElObject.tsx</title>
<path fill="none" stroke="#ff6c60" d="M2112.58,-693.75C2112.58,-693.75 1804.17,-693.75 1804.17,-693.75 1800.21,-693.75 1796.25,-689.79 1796.25,-685.83 1796.25,-685.83 1796.25,-677.92 1796.25,-677.92 1796.25,-673.96 1800.21,-670 1804.17,-670 1804.17,-670 2112.58,-670 2112.58,-670 2116.54,-670 2120.5,-673.96 2120.5,-677.92 2120.5,-677.92 2120.5,-685.83 2120.5,-685.83 2120.5,-689.79 2116.54,-693.75 2112.58,-693.75"/>
<text text-anchor="middle" x="1958.38" y="-676.45" font-family="Arial" font-size="14.00" fill="#ff6c60">components/rich&#45;object&#45;form/elements/ElObject.tsx</text>
</g>
<!-- components/rich&#45;object&#45;form/ObjectType.ts&#45;&gt;components/rich&#45;object&#45;form/elements/ElObject.tsx -->
<g id="edge45" class="edge">
<title>components/rich&#45;object&#45;form/ObjectType.ts&#45;&gt;components/rich&#45;object&#45;form/elements/ElObject.tsx</title>
<path fill="none" stroke="#757575" d="M1760.75,-675.22C1768.63,-675.17 1776.61,-675.14 1784.6,-675.13"/>
<polygon fill="#757575" stroke="#757575" points="1784.39,-678.63 1794.39,-675.13 1784.39,-671.63 1784.39,-678.63"/>
</g>
<!-- components/rich&#45;object&#45;form/elements/ElString.tsx -->
<g id="node46" class="node">
<title>components/rich&#45;object&#45;form/elements/ElString.tsx</title>
<path fill="none" stroke="#ff6c60" d="M2110.33,-651.75C2110.33,-651.75 1806.42,-651.75 1806.42,-651.75 1802.46,-651.75 1798.5,-647.79 1798.5,-643.83 1798.5,-643.83 1798.5,-635.92 1798.5,-635.92 1798.5,-631.96 1802.46,-628 1806.42,-628 1806.42,-628 2110.33,-628 2110.33,-628 2114.29,-628 2118.25,-631.96 2118.25,-635.92 2118.25,-635.92 2118.25,-643.83 2118.25,-643.83 2118.25,-647.79 2114.29,-651.75 2110.33,-651.75"/>
<text text-anchor="middle" x="1958.38" y="-634.45" font-family="Arial" font-size="14.00" fill="#ff6c60">components/rich&#45;object&#45;form/elements/ElString.tsx</text>
</g>
<!-- components/rich&#45;object&#45;form/ObjectType.ts&#45;&gt;components/rich&#45;object&#45;form/elements/ElString.tsx -->
<g id="edge46" class="edge">
<title>components/rich&#45;object&#45;form/ObjectType.ts&#45;&gt;components/rich&#45;object&#45;form/elements/ElString.tsx</title>
<path fill="none" stroke="#757575" d="M1680.14,-669.53C1711.92,-664.48 1753.36,-658.76 1794.47,-653.62"/>
<polygon fill="#757575" stroke="#757575" points="1794.77,-657.11 1804.26,-652.41 1793.91,-650.16 1794.77,-657.11"/>
</g>
<!-- components/forms/TaskForm.tsx -->
<g id="node33" class="node">
<title>components/forms/TaskForm.tsx</title>
<path fill="none" stroke="#c6c5fe" d="M1393.58,-829.75C1393.58,-829.75 1196.17,-829.75 1196.17,-829.75 1192.21,-829.75 1188.25,-825.79 1188.25,-821.83 1188.25,-821.83 1188.25,-813.92 1188.25,-813.92 1188.25,-809.96 1192.21,-806 1196.17,-806 1196.17,-806 1393.58,-806 1393.58,-806 1397.54,-806 1401.5,-809.96 1401.5,-813.92 1401.5,-813.92 1401.5,-821.83 1401.5,-821.83 1401.5,-825.79 1397.54,-829.75 1393.58,-829.75"/>
<text text-anchor="middle" x="1294.88" y="-812.45" font-family="Arial" font-size="14.00" fill="#c6c5fe">components/forms/TaskForm.tsx</text>
</g>
<!-- components/forms/TaskForm.tsx&#45;&gt;components/spot&#45;light/SpotLight.tsx -->
<g id="edge28" class="edge">
<title>components/forms/TaskForm.tsx&#45;&gt;components/spot&#45;light/SpotLight.tsx</title>
<path fill="none" stroke="#757575" d="M1352.59,-830.24C1408.57,-842.45 1494.18,-861.11 1553.71,-874.09"/>
<polygon fill="#757575" stroke="#757575" points="1552.89,-877.5 1563.41,-876.21 1554.38,-870.66 1552.89,-877.5"/>
</g>
<!-- components/forms/funnel/CreateFunnelForm.tsx -->
<g id="node34" class="node">
<title>components/forms/funnel/CreateFunnelForm.tsx</title>
<path fill="none" stroke="#cfffac" d="M1440.83,-693.75C1440.83,-693.75 1148.92,-693.75 1148.92,-693.75 1144.96,-693.75 1141,-689.79 1141,-685.83 1141,-685.83 1141,-677.92 1141,-677.92 1141,-673.96 1144.96,-670 1148.92,-670 1148.92,-670 1440.83,-670 1440.83,-670 1444.79,-670 1448.75,-673.96 1448.75,-677.92 1448.75,-677.92 1448.75,-685.83 1448.75,-685.83 1448.75,-689.79 1444.79,-693.75 1440.83,-693.75"/>
<text text-anchor="middle" x="1294.88" y="-676.45" font-family="Arial" font-size="14.00" fill="#cfffac">components/forms/funnel/CreateFunnelForm.tsx</text>
</g>
<!-- components/forms/funnel/EditFunnelForm.tsx -->
<g id="node35" class="node">
<title>components/forms/funnel/EditFunnelForm.tsx</title>
<path fill="none" stroke="#cfffac" d="M1432.21,-651.75C1432.21,-651.75 1157.54,-651.75 1157.54,-651.75 1153.58,-651.75 1149.62,-647.79 1149.62,-643.83 1149.62,-643.83 1149.62,-635.92 1149.62,-635.92 1149.62,-631.96 1153.58,-628 1157.54,-628 1157.54,-628 1432.21,-628 1432.21,-628 1436.17,-628 1440.12,-631.96 1440.12,-635.92 1440.12,-635.92 1440.12,-643.83 1440.12,-643.83 1440.12,-647.79 1436.17,-651.75 1432.21,-651.75"/>
<text text-anchor="middle" x="1294.88" y="-634.45" font-family="Arial" font-size="14.00" fill="#cfffac">components/forms/funnel/EditFunnelForm.tsx</text>
</g>
<!-- components/forms/index.ts -->
<g id="node36" class="node">
<title>components/forms/index.ts</title>
<path fill="none" stroke="#c6c5fe" d="M1083.96,-651.75C1083.96,-651.75 921.04,-651.75 921.04,-651.75 917.08,-651.75 913.12,-647.79 913.12,-643.83 913.12,-643.83 913.12,-635.92 913.12,-635.92 913.12,-631.96 917.08,-628 921.04,-628 921.04,-628 1083.96,-628 1083.96,-628 1087.92,-628 1091.88,-631.96 1091.88,-635.92 1091.88,-635.92 1091.88,-643.83 1091.88,-643.83 1091.88,-647.79 1087.92,-651.75 1083.96,-651.75"/>
<text text-anchor="middle" x="1002.5" y="-634.45" font-family="Arial" font-size="14.00" fill="#c6c5fe">components/forms/index.ts</text>
</g>
<!-- components/forms/index.ts&#45;&gt;components/forms/FactForm.tsx -->
<g id="edge29" class="edge">
<title>components/forms/index.ts&#45;&gt;components/forms/FactForm.tsx</title>
<path fill="none" stroke="#757575" d="M1092.24,-651.13C1096.88,-653.83 1101.19,-657.05 1105,-660.88 1161.95,-718.07 1085.56,-780.22 1141,-838.88 1151.39,-849.86 1164.39,-857.98 1178.4,-863.94"/>
<polygon fill="#757575" stroke="#757575" points="1176.75,-867.06 1187.34,-867.37 1179.26,-860.52 1176.75,-867.06"/>
</g>
<!-- components/forms/index.ts&#45;&gt;components/forms/ListForm.tsx -->
<g id="edge30" class="edge">
<title>components/forms/index.ts&#45;&gt;components/forms/ListForm.tsx</title>
<path fill="none" stroke="#757575" d="M1091.37,-652.09C1096.22,-654.56 1100.82,-657.46 1105,-660.88 1136.46,-686.57 1108.69,-720.25 1141,-744.88 1152.63,-753.74 1166.25,-759.78 1180.49,-763.79"/>
<polygon fill="#757575" stroke="#757575" points="1179.45,-767.14 1190,-766.12 1181.12,-760.34 1179.45,-767.14"/>
</g>
<!-- components/forms/index.ts&#45;&gt;components/forms/ObjectTypeForm.tsx -->
<g id="edge31" class="edge">
<title>components/forms/index.ts&#45;&gt;components/forms/ObjectTypeForm.tsx</title>
<path fill="none" stroke="#757575" d="M1086.4,-652.16C1092.9,-654.57 1099.19,-657.45 1105,-660.88 1126.17,-673.37 1119.42,-691.1 1141,-702.88 1146.02,-705.61 1151.26,-708.04 1156.65,-710.19"/>
<polygon fill="#757575" stroke="#757575" points="1155.18,-713.37 1165.77,-713.47 1157.55,-706.79 1155.18,-713.37"/>
</g>
<!-- components/forms/index.ts&#45;&gt;components/forms/TaskForm.tsx -->
<g id="edge32" class="edge">
<title>components/forms/index.ts&#45;&gt;components/forms/TaskForm.tsx</title>
<path fill="none" stroke="#757575" d="M1092.37,-651.75C1096.91,-654.31 1101.18,-657.32 1105,-660.88 1147.68,-700.5 1098.24,-747.33 1141,-786.88 1151.35,-796.45 1163.82,-803.41 1177.12,-808.43"/>
<polygon fill="#757575" stroke="#757575" points="1175.9,-811.71 1186.5,-811.57 1178.12,-805.07 1175.9,-811.71"/>
</g>
<!-- components/forms/index.ts&#45;&gt;components/forms/funnel/CreateFunnelForm.tsx -->
<g id="edge33" class="edge">
<title>components/forms/index.ts&#45;&gt;components/forms/funnel/CreateFunnelForm.tsx</title>
<path fill="none" stroke="#757575" d="M1083.09,-652.24C1102.06,-655.13 1122.24,-658.15 1141,-660.88 1157.31,-663.24 1174.61,-665.68 1191.48,-668.03"/>
<polygon fill="#757575" stroke="#757575" points="1190.61,-671.44 1201,-669.34 1191.57,-664.51 1190.61,-671.44"/>
</g>
<!-- components/forms/index.ts&#45;&gt;components/forms/funnel/EditFunnelForm.tsx -->
<g id="edge34" class="edge">
<title>components/forms/index.ts&#45;&gt;components/forms/funnel/EditFunnelForm.tsx</title>
<path fill="none" stroke="#757575" d="M1092.2,-639.88C1106.76,-639.88 1122.22,-639.88 1137.85,-639.88"/>
<polygon fill="#757575" stroke="#757575" points="1137.74,-643.38 1147.74,-639.88 1137.74,-636.38 1137.74,-643.38"/>
</g>
<!-- components/forms/object/ObjectForm.tsx -->
<g id="node37" class="node">
<title>components/forms/object/ObjectForm.tsx</title>
<path fill="none" stroke="#cfffac" d="M1419.46,-609.75C1419.46,-609.75 1170.29,-609.75 1170.29,-609.75 1166.33,-609.75 1162.38,-605.79 1162.38,-601.83 1162.38,-601.83 1162.38,-593.92 1162.38,-593.92 1162.38,-589.96 1166.33,-586 1170.29,-586 1170.29,-586 1419.46,-586 1419.46,-586 1423.42,-586 1427.38,-589.96 1427.38,-593.92 1427.38,-593.92 1427.38,-601.83 1427.38,-601.83 1427.38,-605.79 1423.42,-609.75 1419.46,-609.75"/>
<text text-anchor="middle" x="1294.88" y="-592.45" font-family="Arial" font-size="14.00" fill="#cfffac">components/forms/object/ObjectForm.tsx</text>
</g>
<!-- components/forms/index.ts&#45;&gt;components/forms/object/ObjectForm.tsx -->
<g id="edge35" class="edge">
<title>components/forms/index.ts&#45;&gt;components/forms/object/ObjectForm.tsx</title>
<path fill="none" stroke="#757575" d="M1083.09,-627.51C1102.06,-624.62 1122.24,-621.6 1141,-618.88 1157.31,-616.51 1174.61,-614.07 1191.48,-611.72"/>
<polygon fill="#757575" stroke="#757575" points="1191.57,-615.24 1201,-610.41 1190.61,-608.31 1191.57,-615.24"/>
</g>
<!-- components/forms/tag/EditTagForm.tsx -->
<g id="node38" class="node">
<title>components/forms/tag/EditTagForm.tsx</title>
<path fill="none" stroke="#cfffac" d="M1413.46,-567.75C1413.46,-567.75 1176.29,-567.75 1176.29,-567.75 1172.33,-567.75 1168.38,-563.79 1168.38,-559.83 1168.38,-559.83 1168.38,-551.92 1168.38,-551.92 1168.38,-547.96 1172.33,-544 1176.29,-544 1176.29,-544 1413.46,-544 1413.46,-544 1417.42,-544 1421.38,-547.96 1421.38,-551.92 1421.38,-551.92 1421.38,-559.83 1421.38,-559.83 1421.38,-563.79 1417.42,-567.75 1413.46,-567.75"/>
<text text-anchor="middle" x="1294.88" y="-550.45" font-family="Arial" font-size="14.00" fill="#cfffac">components/forms/tag/EditTagForm.tsx</text>
</g>
<!-- components/forms/index.ts&#45;&gt;components/forms/tag/EditTagForm.tsx -->
<g id="edge36" class="edge">
<title>components/forms/index.ts&#45;&gt;components/forms/tag/EditTagForm.tsx</title>
<path fill="none" stroke="#757575" d="M1025.12,-627.54C1051.57,-613.03 1098.14,-589.34 1141,-576.88 1149.23,-574.48 1157.79,-572.36 1166.47,-570.47"/>
<polygon fill="#757575" stroke="#757575" points="1166.93,-573.95 1176.03,-568.52 1165.53,-567.09 1166.93,-573.95"/>
</g>
<!-- components/forms/tag/NewTagForm.tsx -->
<g id="node39" class="node">
<title>components/forms/tag/NewTagForm.tsx</title>
<path fill="none" stroke="#cfffac" d="M1415.33,-525.75C1415.33,-525.75 1174.42,-525.75 1174.42,-525.75 1170.46,-525.75 1166.5,-521.79 1166.5,-517.83 1166.5,-517.83 1166.5,-509.92 1166.5,-509.92 1166.5,-505.96 1170.46,-502 1174.42,-502 1174.42,-502 1415.33,-502 1415.33,-502 1419.29,-502 1423.25,-505.96 1423.25,-509.92 1423.25,-509.92 1423.25,-517.83 1423.25,-517.83 1423.25,-521.79 1419.29,-525.75 1415.33,-525.75"/>
<text text-anchor="middle" x="1294.88" y="-508.45" font-family="Arial" font-size="14.00" fill="#cfffac">components/forms/tag/NewTagForm.tsx</text>
</g>
<!-- components/forms/index.ts&#45;&gt;components/forms/tag/NewTagForm.tsx -->
<g id="edge37" class="edge">
<title>components/forms/index.ts&#45;&gt;components/forms/tag/NewTagForm.tsx</title>
<path fill="none" stroke="#757575" d="M1015,-627.62C1037.03,-605.02 1087.76,-557.03 1141,-534.88 1145.72,-532.91 1150.58,-531.12 1155.55,-529.5"/>
<polygon fill="#757575" stroke="#757575" points="1156.53,-532.86 1165.1,-526.62 1154.51,-526.15 1156.53,-532.86"/>
</g>
<!-- components/layouts/Header.tsx&#45;&gt;components/spot&#45;light/SpotLight.tsx -->
<g id="edge38" class="edge">
<title>components/layouts/Header.tsx&#45;&gt;components/spot&#45;light/SpotLight.tsx</title>
<path fill="none" stroke="#757575" d="M1105.16,-1000.24C1195.98,-989.63 1332.27,-971 1448.75,-943.88 1493.28,-933.5 1542.91,-917.19 1577.5,-905.02"/>
<polygon fill="#757575" stroke="#757575" points="1578.5,-908.38 1586.75,-901.73 1576.16,-901.78 1578.5,-908.38"/>
</g>
<!-- components/rich&#45;object&#45;form/elements/ElImage.tsx&#45;&gt;components/rich&#45;object&#45;form/ObjectType.ts -->
<g id="edge47" class="edge">
<title>components/rich&#45;object&#45;form/elements/ElImage.tsx&#45;&gt;components/rich&#45;object&#45;form/ObjectType.ts</title>
<path fill="none" stroke="#757575" d="M1805.76,-711.53C1765.76,-706.63 1724.56,-701.06 1691.48,-695.99"/>
<polygon fill="#757575" stroke="#757575" points="1692.05,-692.53 1681.63,-694.45 1690.97,-699.45 1692.05,-692.53"/>
</g>
<!-- components/rich&#45;object&#45;form/elements/ElObject.tsx&#45;&gt;components/rich&#45;object&#45;form/ObjectType.ts -->
<g id="edge48" class="edge">
<title>components/rich&#45;object&#45;form/elements/ElObject.tsx&#45;&gt;components/rich&#45;object&#45;form/ObjectType.ts</title>
<path fill="none" stroke="#757575" d="M1795.91,-688.62C1788,-688.63 1780.08,-688.62 1772.22,-688.59"/>
<polygon fill="#757575" stroke="#757575" points="1772.28,-685.09 1762.26,-688.54 1772.24,-692.09 1772.28,-685.09"/>
</g>
<!-- components/rich&#45;object&#45;form/elements/ElString.tsx&#45;&gt;components/rich&#45;object&#45;form/ObjectType.ts -->
<g id="edge49" class="edge">
<title>components/rich&#45;object&#45;form/elements/ElString.tsx&#45;&gt;components/rich&#45;object&#45;form/ObjectType.ts</title>
<path fill="none" stroke="#757575" d="M1900.94,-652.19C1865.42,-657.84 1817.78,-664.33 1772.02,-669.91"/>
<polygon fill="#757575" stroke="#757575" points="1771.76,-666.41 1762.25,-671.08 1772.59,-673.36 1771.76,-666.41"/>
</g>
<!-- pages/settings/FunnelsPage.tsx&#45;&gt;components/Breadcrumb.tsx -->
<g id="edge65" class="edge">
<title>pages/settings/FunnelsPage.tsx&#45;&gt;components/Breadcrumb.tsx</title>
<path fill="none" stroke="#757575" d="M779.88,-294.25C810.71,-296.32 842.1,-304.88 864,-326.88 969.34,-432.68 799.65,-550.32 900,-660.88 900.47,-661.4 900.95,-661.9 901.44,-662.4"/>
<polygon fill="#757575" stroke="#757575" points="899,-664.92 908.94,-668.61 903.47,-659.53 899,-664.92"/>
</g>
<!-- pages/settings/FunnelsPage.tsx&#45;&gt;components/forms/index.ts -->
<g id="edge66" class="edge">
<title>pages/settings/FunnelsPage.tsx&#45;&gt;components/forms/index.ts</title>
<path fill="none" stroke="#757575" d="M780.07,-298.84C809.5,-301.51 840.05,-309.26 864,-326.88 962.19,-399.12 991.33,-556.92 999.02,-616.48"/>
<polygon fill="#757575" stroke="#757575" points="995.51,-616.62 1000.17,-626.13 1002.46,-615.79 995.51,-616.62"/>
</g>
<!-- types/Funnel.ts -->
<g id="node59" class="node">
<title>types/Funnel.ts</title>
<path fill="none" stroke="#cfffac" d="M1048.33,-317.75C1048.33,-317.75 956.67,-317.75 956.67,-317.75 952.71,-317.75 948.75,-313.79 948.75,-309.83 948.75,-309.83 948.75,-301.92 948.75,-301.92 948.75,-297.96 952.71,-294 956.67,-294 956.67,-294 1048.33,-294 1048.33,-294 1052.29,-294 1056.25,-297.96 1056.25,-301.92 1056.25,-301.92 1056.25,-309.83 1056.25,-309.83 1056.25,-313.79 1052.29,-317.75 1048.33,-317.75"/>
<text text-anchor="middle" x="1002.5" y="-300.45" font-family="Arial" font-size="14.00" fill="#cfffac">types/Funnel.ts</text>
</g>
<!-- pages/settings/FunnelsPage.tsx&#45;&gt;types/Funnel.ts -->
<g id="edge67" class="edge">
<title>pages/settings/FunnelsPage.tsx&#45;&gt;types/Funnel.ts</title>
<path fill="none" stroke="#757575" d="M780.12,-305.88C831.68,-305.88 892.46,-305.88 937.28,-305.88"/>
<polygon fill="#757575" stroke="#757575" points="937.1,-309.38 947.1,-305.88 937.1,-302.38 937.1,-309.38"/>
</g>
</g>
</svg>
